<svg id="logo" xmlns="http://www.w3.org/2000/svg" xmlns:xlink="http://www.w3.org/1999/xlink" width="148" height="34" viewBox="0 0 148 34">
  <defs>
    <clipPath id="clip-path">
      <rect id="Rect치ngulo_2866" data-name="Rect치ngulo 2866" width="137.296" height="28" fill="none"/>
    </clipPath>
  </defs>
  <rect id="Rect치ngulo_2863" data-name="Rect치ngulo 2863" width="148" height="34" fill="#fff" opacity="0"/>
  <g id="Grupo_6824" data-name="Grupo 6824" transform="translate(1 3)">
    <g id="Grupo_6823" data-name="Grupo 6823" clip-path="url(#clip-path)">
      <path id="Trazado_6577" data-name="Trazado 6577" d="M0,27.518V10.134H3.63v2.42h.1A6.069,6.069,0,0,1,9.078,9.663q3.732,0,4.875,2.891A6.421,6.421,0,0,1,19.4,9.667q5.816,0,5.816,5.85v12H21.379V17.366A8.164,8.164,0,0,0,20.909,14a2.687,2.687,0,0,0-2.69-1.31q-3.7,0-3.7,4.638V27.519H10.688V16.357A4.532,4.532,0,0,0,10,13.584a2.819,2.819,0,0,0-2.37-.891A3.515,3.515,0,0,0,4.938,13.9a4.694,4.694,0,0,0-1.109,3.3V27.519Z" fill="#ff2639"/>
      <path id="Trazado_6578" data-name="Trazado 6578" d="M43,10.137V27.521H39.233V25.1h-.068a5.451,5.451,0,0,1-2.1,2.082,5.622,5.622,0,0,1-2.84.807q-6.489,0-6.489-6.825V10.137h3.833V20.793q0,4.164,3.331,4.164,4.269,0,4.268-4.74V10.132Z" fill="#ff2639"/>
      <path id="Trazado_6579" data-name="Trazado 6579" d="M45.518,27.518V10.134h3.63v2.555l.067.067a5.936,5.936,0,0,1,5.414-3.093,6.392,6.392,0,0,1,4.521,1.514,5.717,5.717,0,0,1,1.631,4.4V27.515H56.948V16.585q0-3.9-3.4-3.9A3.873,3.873,0,0,0,50.509,14a4.745,4.745,0,0,0-1.159,3.261V27.511Z" fill="#ff2639"/>
      <path id="Trazado_6580" data-name="Trazado 6580" d="M79.674,3.514v24H76.043V25.164h-.066q-1.446,2.825-5.379,2.824A7.375,7.375,0,0,1,64.48,25.3a10.145,10.145,0,0,1-2.018-6.59,9.551,9.551,0,0,1,2.354-6.891,6.852,6.852,0,0,1,5.178-2.152q4.1,0,5.781,2.723h.068V3.514ZM66.3,19.012a7.019,7.019,0,0,0,1.145,4.1,4.237,4.237,0,0,0,3.665,1.85,4.286,4.286,0,0,0,3.731-1.95,7.305,7.305,0,0,0,1.145-4.2,7.035,7.035,0,0,0-1.294-4.487,4.617,4.617,0,0,0-7.312.352,7.929,7.929,0,0,0-1.08,4.335" fill="#ff2639"/>
      <path id="Trazado_6581" data-name="Trazado 6581" d="M90.295,27.988A8.387,8.387,0,0,1,83.808,25.4a10.57,10.57,0,0,1,.05-13.195,9.43,9.43,0,0,1,12.926.05,10.591,10.591,0,0,1,0,13.145,8.393,8.393,0,0,1-6.489,2.588m0-3.025a4.316,4.316,0,0,0,3.766-1.951,8.03,8.03,0,0,0,0-8.37,4.611,4.611,0,0,0-7.53,0,8.026,8.026,0,0,0,0,8.37,4.315,4.315,0,0,0,3.764,1.95Z" fill="#ff2639"/>
      <path id="Trazado_6582" data-name="Trazado 6582" d="M99.81,21.937h3.828q.269,3.026,3.932,3.025,3.967,0,3.868-2.29-.071-1.614-3.026-2.32-4.941-1.21-5.346-1.412a4.405,4.405,0,0,1-2.891-4.3,4.194,4.194,0,0,1,2.455-3.9,9.845,9.845,0,0,1,4.808-1.075,8.736,8.736,0,0,1,4.806,1.21,5.53,5.53,0,0,1,2.456,4.134h-4q-.434-2.317-3.529-2.318-3.159,0-3.161,1.781,0,1.211,1.782,1.849.336.133,3.866.937a11.375,11.375,0,0,1,3.867,1.478,4.2,4.2,0,0,1,1.748,3.6,4.816,4.816,0,0,1-2.522,4.373A10,10,0,0,1,107.5,27.98a9.032,9.032,0,0,1-5.448-1.479,5.4,5.4,0,0,1-2.247-4.564" fill="#ff2639"/>
      <path id="Trazado_6583" data-name="Trazado 6583" d="M137.3,6.053V.015H124.8V0h-6.037V27.669H124.8v-.016H137.3V21.615H124.8V16.859h10.818V10.822H124.8V6.066Z" fill="#ff2639"/>
    </g>
  </g>
</svg>
