<?xml version="1.0" encoding="utf-8"?>
<!-- Generator: Adobe Illustrator 19.2.1, SVG Export Plug-In . SVG Version: 6.00 Build 0)  -->
<svg version="1.1" id="Escudo" xmlns="http://www.w3.org/2000/svg" xmlns:xlink="http://www.w3.org/1999/xlink" x="0px" y="0px"
	 viewBox="0 0 590 757" style="enable-background:new 0 0 590 757;" xml:space="preserve">
<style type="text/css">
	.st0{fill:#FFFFFF;stroke:#000000;stroke-width:4;stroke-miterlimit:10;}
	.st1{fill:#55595B;}
	.st2{fill:#456A3E;}
	.st3{fill:#A61B30;}
	.st4{fill:#94B43B;stroke:#456A3E;stroke-width:4;stroke-miterlimit:10;}
	.st5{fill:#FFFFFF;}
	.st6{fill:none;stroke:#000000;stroke-width:5;stroke-miterlimit:10;}
</style>
<path id="Escudo_Base" class="st0" d="M93,391.5c-0.3-34.5,9.2-47.4,8.8-81.8c-0.3-17.5-9.1-42.3-22.8-60.8l8-16.5
	c8.6,5,19,1.3,22.9-3.4c2.9-3.5,6.8-12.3,3.1-21.6l17.3-8.7c15.1,14.6,41.3,33.6,68.2,36.6c28.6,3.2,52.1-3.4,71-14.4l25.5,34
	l24.5-34c20.2,11.8,47.3,17.7,69.8,14.7c23.5-3.1,51.1-18.3,69.6-36.8l17.3,10.1c-2.9,6-2.5,16.1,5.3,21.7c5.7,4.1,14.6,6,20.5,2.4
	l8.5,16.7c-11.3,15.2-19.8,33.9-21.6,50.3c-3.6,33.9,8.6,62.1,8.1,91.5c-12,0.3-24.1-0.4-24,15c0.1,15,14.1,16.3,24.6,15.5
	c-0.1,38.1-6.8,102.3-39.9,143.4c-32.1,39.9-96.4,51-137.8,67.6c-12.6,5.1-25.3,14.5-25.3,14.5s-12.7-8.1-33.3-17
	C207.3,607,168.7,610,126,557.8c-25.6-31.3-34.2-93.7-33.6-135.3c16.8-0.3,25.3-5.5,24.4-16.5C116,395.4,109.7,390.8,93,391.5z"/>
<path id="Pi" class="st1" d="M242.1,451.8c-7.8-11.3-8-27.4-5.4-41.8H125c0,11-8,18.8-24.5,18.8c0,26.4,7.4,93.6,38.1,130.1
	c41.7,49.5,108.7,48.5,152.4,75.1V482C279.8,481.4,252.6,467,242.1,451.8z M236,532c-8.5,7.5-24,4.2-28-7.3
	c-2.7-7.8-0.5-40.2,0.8-49.7H188v31c0,9.5-8.3,27.3-17.5,31.3l-8.3-9.7c10.5-4,15.8-15.2,15.8-25.5v-27.8
	c-12.2,0-15.9,5.5-15.9,16.8l-10.2-2.3c0-16.4,9.5-23.9,25.6-23.9H234v10h-15c0,0-0.5,37.5,0,42c0.8,7,7.2,10.3,17,5V532z"/>
<path id="Caliz" class="st1" d="M501,250.3l-4-8c-7.8,1.9-18.5-2.3-23.3-7.2c-4.9-5.1-8.5-15-7.4-22.1l-7.7-4.3
	c-6.3,12.5-41.9,30.5-64.3,35c-22.5,4.5-57.3-1-73.2-11.3L298,265v83c9.9,9.7,39.7,12.6,46,10.3l10.3,11.6
	c-2.5,3.4-4.3,10.3-4.2,17.4c0.1,10.5,1.7,10.1,1.4,16.7H463c0.8-12.6,14.8-21.9,24.8-19.3c0-27.1-8.7-44.9-8.8-71.2
	C478.9,291.7,487.9,265.3,501,250.3z M350.4,303H424c0,15.2-22.1,22.3-33,22.3v27c-2.9-0.4-6-0.7-9-1.1v-26.1
	C375.4,325.1,350.4,319.2,350.4,303z M367.1,379c0-6.7,5.9-9.1,14.9-9.1v-4.5c1.2,0.1,2.4,0.3,3.7,0.4c1.8,0.2,3.5,0.4,5.3,0.6v3.5
	c9.3,0,16.7,2.1,16.7,9H367.1z M415.7,379c-1.2,0.2-2.4-1.8-3.4-4c-3.6-7.8-13.8-11.4-24.1-12.4c-14.5-1.4-24.9-4.8-24.5-13.9
	c0.2-5.2,7.3-9.6,15.3-12.8v9c-3,1.1-5.5,2.3-5.7,4.1c-0.8,6.6,15.9,5.8,23.8,8c10.7,2.9,19,8.3,20.3,13.4
	C418.5,374.7,417,378.8,415.7,379z M446.9,301.6c-1.3,20.3-16,30.9-37.5,36.8c-4.8,1.3-9.5,2.3-14.5,3.1v-10.1
	c1-0.1,1.1-0.2,1.6-0.2c27.1-4.3,38.8-13.6,38.5-30.1c-0.2-11.3-10.2-18.8-21.5-19.1c-15.5-0.5-19.5,5.6-25.4,10
	c-3.6,2.8-8.7,3.9-11.9,2.4c-2.6-1.2-3.1-3.6,1.2-8.6c4.6-5.4,14.7-14.8,36.1-14.8C432.8,271,447.9,286.4,446.9,301.6z M383.9,283.8
	c-1.3,0-2.3,1-2.3,2.3c0,1.3,1,2.3,2.3,2.3c1.3,0,2.3-1,2.3-2.3C386.2,284.8,385.1,283.8,383.9,283.8z"/>
<path id="Espiga" class="st2" d="M346.8,370.3l-5.1-6.1c-2.9,1.3-19.5,0.9-25.3-0.4c-5.4-1.3-17.7-6.4-21.4-10.6
	c-3.5,2.9-12.2,7.2-21.5,10c-6.2,1.9-17.2,3-26.7,1.5L243,370c2.2,4.3,2.8,8.5,3.2,20.1c0.3,9.5-3.5,25.6-3.2,36.7
	c1.1,32.3,36.3,45.8,52,49c15.7-4.1,49.8-13.9,51.3-48.3c0.9-22.1-3.1-27-3.3-38.3C342.9,381.7,344.3,375.4,346.8,370.3z
	 M290.5,373.5c0.9-2,2.5-1.8,2.7-3.9l1.1-13.5c0.1-0.8,1.2-0.8,1.3,0l1,13.2c0.4,2.6,1.8,2.7,2.8,4.1c1.3,1.9,1.4,6.6-0.3,8.6
	c-2.2,2.7-5.8,2.8-8.1,0.1C289.2,380.2,289.4,375.7,290.5,373.5z M285.2,382.9c1.2,1.3,2.2,0.4,5.6,2.6c3.4,2.3,4.2,4,4.2,4
	s1.1-2.1,3.2-3.6c3.6-2.6,4.3-1.3,6.2-2.8c0.9-0.7,6-11.3,7.5-14.4c0.3-0.6,1.2-0.3,1,0.4l-6.3,16.5c-0.5,3.2-1.2,6.1-5.2,7.8
	c-4.2,1.7-10.4,1.4-13.6-0.2c-4.4-2.2-5.5-6.2-6-7.8l-5.6-16.1c-0.2-0.7,0.7-1.1,1.1-0.5L285.2,382.9z M281.7,393.4
	c1.5,2,4.1,1.4,7.7,2.9c4.4,1.8,5.4,4.1,5.4,4.1s0.7-2.1,4.4-3.9c3.4-1.7,7.7-1.2,8.7-2.4l9.8-16.2c0.4-0.6,1.3-0.1,0.9,0.6l-9,16.8
	c-1.6,3.5-2.9,6.6-8.4,9.5c-4.4,2.3-9.8,1.7-13.7-0.3c-6-3-6.5-7.1-7.3-8.6l-9.8-16.7c-0.4-0.7,0.6-1.4,1.1-0.7L281.7,393.4z
	 M284,406.3c1.1,1,1.8,0.3,5.7,1.8c4.8,1.9,5.2,4,5.2,4s1.3-2.8,4.3-4c2.9-1.1,4.9,0,7.3-2.2l14.9-19.4c0.5-0.6,1.4,0.1,1,0.7
	l-12.8,20.2c-1.6,2.9-1.2,4.9-6,7.3c-4.5,2.1-12.7,1.6-16.6,0.2c-5-1.8-5-5.3-6.1-6.8l-13.8-21c-0.4-0.6,0.5-1.3,1-0.7L284,406.3z
	 M251.9,390.8c0.1-0.4,0.6-0.3,0.6,0c0.2,6.6,0.4,23.7,1,24.7c0.6,0.8,8.6,0.5,9,8.8c0.2,4.3-1.1,6.2-7.1,6.2
	c-4.8,0-5.7-3.7-6.3-10.9C248.8,416.2,251,397.8,251.9,390.8z M250.2,434.8c2.5,0.6,5.9,0.1,7.5-1c2.6-1.7,6.2-0.9,6.2-0.9
	s-0.8-2.5,0.8-5.2c1.1-1.9,1.5-3.3,1-5.3l-6.4-19.4c-0.1-0.5,0.5-0.7,0.7-0.3l8.6,18.3c1.2,2.8,3.5,5,3.2,8.8
	c-0.5,5.8-5.8,10.8-13,11C255,441,251.4,438.1,250.2,434.8z M266.6,449.6c-3.5-0.3-6.4-1.3-6.8-5.2c2.1-0.2,4.2-1,6.1-2.5
	c3-2.4,6.5-1.9,6.5-1.9s0-2.8,1.3-5.1c1.3-2.3,2.4-2.9,2.8-7.4c2.8,1.5,5,4.1,4.8,8C280.7,443.8,273,450.3,266.6,449.6z
	 M312.9,466.5l-6.1,0.6L297,460v11.5c0,0,0.2,1.5-2.5,1.5c-2.5,0-2.5-1.6-2.5-1.6V460l-9,6.9l-5.1-1.4l12.1-9.6v-1.9l-4.4-2.7
	c-2.9,0.6-2.5,3-5,4.5c-2.4,1.4-7.4,1.1-10.2-2.9c2-0.4,4.8-2,6-3.8c1.8-2.4,6.8-2.3,6.8-2.3s-0.8-5.8,0.3-8.2
	c0.7-1.6,1.7-3.8,1.3-6.2c3.3,1.6,5.7,5.4,5.8,8.7c0,4.4-2.2,4.2-2,7.3l3.5,3.4v-22.3c-2-2.5-5.7,0.1-9.7-3.3
	c-2.6-2.2-2.9-6.4-4.9-9.5l-14.6-21.5c-0.4-0.6,0.4-1.2,0.9-0.7l18.4,21.7c1.6,1.9,3.7,0.9,7.2,1.7c3.6,0.9,5.8,5.3,5.8,5.3
	s2.3-4,5.5-5.2c3.4-1.3,6.5-0.7,8.6-3l16.6-20.5c0.5-0.5,1.3,0.1,0.9,0.7l-14.5,22.2c-2.2,3.2-1.6,5.1-4.7,8.2
	c-3.9,4-7.9,1.4-10.4,4.3v21.8l4.6-3.1c-0.2-2.7-2.1-2.8-2.2-6.1s1.5-7.6,6.1-9.8c-0.8,1.8-0.6,5.2,0.3,6.3c2.3,3.1,1,8.4,1,8.4
	s4.3-1,5.9,1.6c1.2,1.9,3.2,3.2,6.1,4c-2.4,2.5-5,4-8.4,3.7c-3.6-0.4-4.2-5-6.9-5.3l-4.4,2.8v1.8L312.9,466.5z M322.7,449.6
	c-6.4,0.6-14.1-5.9-14.6-14c-0.2-3.9,1.9-6.5,4.8-8c0.4,4.5,1.5,5.1,2.8,7.4c1.3,2.3,1.3,5.1,1.3,5.1s3.5-0.5,6.5,1.9
	c1.9,1.5,4,2.3,6.1,2.5C329.1,448.3,326.3,449.3,322.7,449.6z M330.5,440.8c-7.2-0.3-12.5-5.2-13-11c-0.4-3.8,1.9-6,3.2-8.8
	l8.3-17.3c0.4-0.7,1.5-0.3,1.2,0.5l-6.6,18.2c-0.5,2-0.1,3.4,1,5.3c1.5,2.7,0.8,5.2,0.8,5.2s3.6-0.8,6.2,0.9c1.6,1.1,5,1.6,7.5,1
	C337.9,438.1,334.4,441,330.5,440.8z M340.2,419.7c-0.7,7.2-1.6,10.9-6.3,10.9c-6,0-7.3-1.9-7.1-6.2c0.4-8.2,8.5-7.9,9-8.8
	c0.6-0.9,0.7-17.1,0.9-24c0-0.6,0.8-0.6,0.9-0.1C338.6,398.9,340.5,416.5,340.2,419.7z"/>
<path id="Balanza" class="st3" d="M222,342v-41l-13.5,41H222z M159,342v-39.8L146.2,342H159z M165,342h12.8L165,300.7V342z
	 M268.7,232.1c-15.9,10.3-50.7,15.9-73.2,11.3c-22.5-4.5-58.1-22.5-64.4-35l-7.7,4.3c1.1,7.1-2.5,17.1-7.4,22.1
	c-4.8,4.9-15.5,9.1-23.3,7.2l-4,8c13.1,15,22.1,41.4,22,63.3c-0.1,26.3-8.9,44.1-8.8,71.2c10.1-2.6,24.1,6.5,24.8,19.5h111.5
	c-0.3-7,1.3-6.3,1.4-16.8c0.1-7.1-1.6-14.2-4.2-17.6l10.4-11.6c6.3,2.3,36.1-0.6,46.1-10.3v-83L268.7,232.1z M223.8,356.7
	c-14.2,0-25.8-5.9-25.8-13.1c0-0.6,0.1-1.6,0.2-1.6h4.5l18.3-55.7c-5.5-1.3-11.9-2.1-18.7-2.4c-1.1,4-4.8,7-9.3,7
	c-4.3,0-7.9-2.8-9.2-6.7c-6.2,0.5-12.3,1.3-17.7,2.4l17.4,55.3h4.7c0.1,0,0.2,1,0.2,1.6c0,7.3-11.5,13.1-25.8,13.1
	s-25.8-5.9-25.8-13.1c0-0.6,0.1-1.6,0.2-1.6h3.2l17.5-53.1c-1,0.3-1.9,0.7-2.8,1l-3.2-5.9c5.8-4.1,18.7-6.6,32.7-7.3
	c1.6-3,4.8-5,8.5-5c3.6,0,6.8,2,8.5,5c14.1,0.7,27,3.1,32.9,7.3l-3.3,5.9c-0.7-0.4-1.4-0.7-2.2-1l16.7,53.1h3.6c0.1,0,0.2,1,0.2,1.6
	C249.5,350.9,238,356.7,223.8,356.7z M227,342h12.9L227,302.5V342z"/>
<path class="st3" d="M394,464v59.1l6-8.8v-48.4c0-0.1-0.6-0.1-0.9-0.2C397.5,465.3,396,464.7,394,464z M385,535.9l5-6.8v-67.1
	c-1-0.8-3-1.8-5-2.8V535.9z M376.7,451c-0.3,14.8-7.6,23.9-8.3,40c-0.7,14.3,4.2,32.8,12.7,42.1v-77.4
	C379.4,454.3,377.9,452.7,376.7,451z M405,507.6l4-6.3v-34.6c-1,0-2.6-0.1-4-0.2V507.6z M464.5,410H352.8
	c2.6,14.4,2.1,30.5-5.6,41.8C336.6,467,310,481.4,298,482v152c44-26.7,110.9-25.7,152.6-75.1c30.8-36.5,38.3-103.8,38.3-130.1
	C472.5,428.8,464.5,421,464.5,410z M440.5,471.3L387,556h-13.8l-3.6-6.4c4.3-3.2,4.9-8.5,1.9-14.9c-2.1-4.4-13.4-20.9-12.8-39.3
	c0.7-22.5,8.3-29.6,9.3-38.3c0.4-3.6-0.2-6.9-1.9-9.1l3.9-6h9c4.2,5.3,13.8,14.3,21.7,16.1c14,3.2,18.4,0,28.8-2.1
	C438.9,454.1,445.2,464,440.5,471.3z M413,495.2l6-7.5v-21.8c-2,0.3-4,0.5-6,0.6V495.2z M424.5,464.4c-0.4,0.2-1,0.4-1.5,0.5v16.5
	l6.8-9.9C435.7,463.3,428.8,462.7,424.5,464.4z"/>
<g id="Hojas_Izquierda">
	<g id="Hojas_1">
		<path class="st4" d="M140.5,195c13.3,2.2,27.5,10.5,32.7,21c11.5-11.6,8.3-30.2-9.7-35.5c28.3-34.5,34.1-94.6,12.7-119
			C157.5,40.2,123,48,123,70.7s30.7,24.3,32.7,11.3l-0.4-0.7c-5.3,2.4-11.4-0.6-10.9-6.2c0.3-3.5,2.5-4.9,5.3-4.9
			c4.3-0.1,6.2,2.5,6.3,8.1c0.1,23.9-33,46-32.7,71.3C123.7,179.2,135.2,191.3,140.5,195z"/>
		<path class="st2" d="M148,196.8c0.3-0.9,0.4-1.9,0.4-2.9c0-5.8-4.7-10.5-10.5-10.5c-2.2,0-4.3,0.7-6,1.9c3.1,5.1,6.4,8.1,8.6,9.6
			C143,195.4,145.5,196,148,196.8z"/>
		<g>
			<path class="st2" d="M135.2,186.8c0,0,0-0.3,0-1c0-0.6,0-1.5,0-2.7c0-2.3,0-5.6,0.2-9.6c0.1-1,0.1-2,0.2-3.1
				c0.1-1.1,0.2-2.2,0.2-3.3c0.1-1.1,0.2-2.3,0.3-3.5c0.2-1.2,0.3-2.4,0.5-3.6c0.2-1.2,0.4-2.5,0.6-3.7c0.3-1.3,0.5-2.5,0.9-3.8
				c0.3-1.3,0.7-2.6,1.2-3.8c0.2-0.6,0.4-1.3,0.7-1.9l0.9-1.9c1.2-2.4,2.6-4.6,3.8-6.8c1.2-2.2,2.5-4.4,3.7-6.6
				c2.3-4.3,4.5-8.3,6.2-11.8c1.8-3.5,3.1-6.5,4-8.6c0.5-1,0.8-1.9,1-2.5c0.2-0.6,0.3-0.9,0.3-0.9s-0.1,0.3-0.3,0.9
				c-0.2,0.6-0.4,1.4-0.8,2.5c-0.7,2.2-1.9,5.2-3.5,8.8c-1.5,3.6-3.4,7.8-5.5,12.2c-1.1,2.2-2.1,4.5-3.3,6.8c-1.1,2.3-2.3,4.7-3.4,7
				l-0.7,1.7c-0.2,0.6-0.4,1.2-0.5,1.8c-0.4,1.2-0.6,2.4-0.9,3.6c-0.3,1.2-0.4,2.5-0.6,3.7c-0.2,1.2-0.3,2.4-0.4,3.6
				c-0.1,1.2-0.2,2.4-0.2,3.5c0,1.2-0.1,2.3-0.1,3.4c0,1.1,0,2.2,0,3.2c0,1,0,2,0,3c0.1,3.9,0.2,7.1,0.4,9.3c0.1,1.1,0.2,2,0.2,2.6
				c0.1,0.6,0.1,0.9,0.1,0.9L135.2,186.8z"/>
		</g>
		<g>
			<path class="st2" d="M139.7,187c0,0,0.2-0.4,0.7-1.1c0.4-0.7,1.1-1.7,1.9-3c1.6-2.6,3.9-6.5,6.5-11.1c1.3-2.3,2.7-4.9,4.1-7.6
				c1.4-2.7,2.9-5.6,4.3-8.6c1.4-3,2.9-6.1,4.3-9.3c1.4-3.2,2.8-6.5,4-9.8c0.7-1.7,1.2-3.3,1.9-5c0.6-1.7,1.1-3.3,1.7-5
				c1.1-3.3,2-6.6,2.8-9.9c0.4-1.6,0.8-3.2,1.1-4.8c0.2-0.8,0.3-1.6,0.5-2.3c0.1-0.8,0.2-1.5,0.4-2.3c0.1-0.8,0.2-1.5,0.4-2.2
				c0.1-0.7,0.2-1.5,0.2-2.2c0.1-0.7,0.2-1.4,0.2-2.1c0-0.7,0.1-1.4,0.1-2c0-0.7,0.1-1.3,0.1-2c0-0.6,0-1.3,0-1.9
				c0-1.2,0-2.4-0.1-3.5c-0.1-1.1-0.2-2.1-0.2-3c-0.1-0.9-0.3-1.8-0.4-2.6c-0.1-0.4-0.1-0.8-0.2-1.1c-0.1-0.3-0.2-0.7-0.2-0.9
				c-0.1-0.6-0.3-1.1-0.4-1.5c-0.2-0.8-0.3-1.2-0.3-1.2s0.1,0.4,0.4,1.2c0.1,0.4,0.3,0.9,0.4,1.5c0.1,0.3,0.2,0.6,0.3,0.9
				c0.1,0.3,0.1,0.7,0.2,1.1c0.2,0.8,0.3,1.6,0.5,2.5c0.1,0.9,0.2,2,0.4,3c0.2,1.1,0.2,2.2,0.2,3.5c0,0.6,0.1,1.2,0.1,1.9
				c0,0.6,0,1.3,0,2c0,0.7,0,1.4,0,2.1c0,0.7-0.1,1.4-0.1,2.1c0,0.7-0.1,1.5-0.1,2.2c-0.1,0.7-0.2,1.5-0.3,2.3
				c-0.1,0.8-0.2,1.5-0.3,2.3c-0.1,0.8-0.2,1.6-0.4,2.4c-0.2,1.6-0.6,3.2-0.9,4.9c-0.7,3.3-1.5,6.7-2.4,10.1c-0.5,1.7-1,3.4-1.5,5.1
				c-0.6,1.7-1.1,3.4-1.7,5.1c-1.2,3.4-2.4,6.8-3.7,10.1c-1.3,3.3-2.6,6.5-3.9,9.6c-1.3,3.1-2.7,6.1-4,8.9c-1.3,2.8-2.6,5.4-3.8,7.8
				c-2.4,4.8-4.5,8.8-6.1,11.6c-0.8,1.4-1.4,2.5-1.8,3.2c-0.4,0.7-0.7,1.1-0.7,1.1L139.7,187z"/>
		</g>
		<g>
			<path class="st2" d="M143.3,189.3c0,0,0.1,0,0.3-0.1c0.2-0.1,0.5-0.1,0.9-0.2c0.7-0.2,1.7-0.3,2.9-0.4c0.6,0,1.3-0.1,1.9-0.1
				c0.7,0,1.4-0.1,2.2,0c0.7,0,1.5,0.1,2.3,0.1c0.8,0.1,1.6,0.2,2.4,0.4c0.8,0.2,1.6,0.3,2.3,0.6c0.7,0.3,1.5,0.5,2.1,0.8
				c0.7,0.3,1.3,0.6,1.9,1c0.6,0.4,1.1,0.7,1.6,1.1c0.4,0.4,0.9,0.7,1.2,1c0.3,0.3,0.6,0.6,0.8,0.9c0.5,0.5,0.7,0.8,0.7,0.8
				s-0.3-0.2-0.9-0.6c-0.3-0.2-0.6-0.4-1-0.7c-0.4-0.2-0.9-0.4-1.4-0.7c-0.5-0.3-1.1-0.5-1.6-0.7c-0.6-0.2-1.2-0.4-1.9-0.5
				c-0.7-0.2-1.4-0.2-2.1-0.3c-0.7-0.1-1.4-0.1-2.1-0.1c-0.7,0-1.4,0.1-2.1,0.1c-0.7,0.1-1.4,0.2-2,0.3c-0.7,0.1-1.3,0.3-1.9,0.4
				c-0.6,0.1-1.1,0.3-1.6,0.5c-1,0.3-1.8,0.7-2.4,0.9c-0.3,0.1-0.5,0.2-0.6,0.3c-0.1,0.1-0.2,0.1-0.2,0.1L143.3,189.3z"/>
		</g>
		<circle class="st2" cx="150.1" cy="76.1" r="5.4"/>
	</g>
	<g id="Hojas_2">
		<path class="st4" d="M94.5,219.6c35-35.3,12-96.3-15.9-98.1c1.5,13-2.5,25.3-6.1,33.6c-1.8,4-4.7,18.8-2.5,25.8
			c-7.9-14-30.2-15.8-40.4-12.3c-3.9,14.3,8.9,35.2,22.7,41.3c-9.9,1-16.3,13-21.3,14.4c-2.6,0.7-6.5,0.1-6.8-3.4
			c-0.2-2.7,1.5-4.2,3.5-4.3c1.4-0.1,4.7,1.2,4.8,4l0.6,0c2.1-18.8-30.5-8.7-26.8,12.5c2.3,13.4,11.4,19.7,30.5,16.5
			C60,245.9,76.9,219.8,94.5,219.6z"/>
		<path class="st2" d="M100.1,213.1c-1.9-2.2-4.7-3.6-7.8-3.6c-5.7,0-10.3,4.6-10.3,10.3c0,1.2,0.2,2.3,0.6,3.4
			c4-2.1,8-3.5,11.9-3.6C96.6,217.5,98.4,215.3,100.1,213.1z"/>
		<g>
			<path class="st2" d="M93.2,212.2c0,0,0.1-0.3,0.2-0.7c0.1-0.5,0.2-1.2,0.4-2.1c0.2-0.9,0.4-2,0.6-3.3c0.2-1.3,0.4-2.7,0.7-4.3
				c0.2-1.6,0.5-3.3,0.7-5.1c0.2-1.8,0.5-3.7,0.6-5.7c0.1-1,0.2-2,0.3-3c0.1-1,0.1-2.1,0.2-3.1c0.2-2.1,0.2-4.2,0.2-6.4
				c0.1-2.1,0-4.3,0-6.4c-0.1-2.1-0.2-4.2-0.4-6.2c-0.2-2-0.4-3.9-0.7-5.7c-0.3-1.8-0.6-3.5-0.9-5.1c-0.4-1.6-0.8-3-1.1-4.3
				c-0.1-0.3-0.2-0.6-0.2-0.9c-0.1-0.3-0.2-0.6-0.3-0.8c-0.2-0.5-0.4-1-0.5-1.5c-0.7-1.8-1-2.8-1-2.8s0.4,1,1.2,2.7
				c0.2,0.4,0.4,0.9,0.6,1.4c0.1,0.3,0.2,0.5,0.4,0.8c0.1,0.3,0.2,0.6,0.3,0.9c0.4,1.3,0.9,2.7,1.4,4.2c0.4,1.6,0.8,3.3,1.3,5.1
				c0.4,1.8,0.7,3.8,1.1,5.8c0.3,2,0.6,4.1,0.8,6.2c0.2,2.1,0.4,4.3,0.5,6.5c0.1,2.2,0.2,4.4,0.2,6.5c0,1.1,0,2.1,0,3.2
				c0,1.1,0,2.1,0,3.1c0,2-0.1,4-0.2,5.9c-0.1,1.9-0.2,3.6-0.3,5.3c-0.1,1.6-0.3,3.1-0.4,4.5c-0.1,1.3-0.3,2.5-0.4,3.4
				c-0.1,1-0.2,1.7-0.3,2.2c-0.1,0.5-0.1,0.8-0.1,0.8L93.2,212.2z"/>
		</g>
		<g>
			<path class="st2" d="M88.6,213.3c0,0-0.6-2.8-1.3-7c-0.7-4.2-1.6-9.7-2.4-15.3c-0.4-2.8-0.7-5.6-1-8.2c-0.3-2.6-0.5-5.1-0.7-7.2
				c-0.2-2.1-0.3-3.8-0.4-5.1c-0.1-1.2-0.1-1.9-0.1-1.9s0.1,0.7,0.3,1.9c0.2,1.2,0.5,2.9,0.9,5c0.4,2.1,0.9,4.5,1.5,7
				c0.6,2.6,1.2,5.3,1.9,8c1.3,5.4,2.8,10.8,4,14.8c1.2,4,2.1,6.6,2.1,6.6L88.6,213.3z"/>
		</g>
		<g>
			<path class="st2" d="M85.7,216.3c0,0-0.5-0.7-1.4-1.8c-0.9-1.2-2.2-2.8-3.8-4.7c-1.6-1.9-3.5-4.2-5.5-6.5c-1-1.2-2.1-2.4-3.2-3.6
				c-1.1-1.2-2.3-2.4-3.4-3.6c-1.1-1.2-2.4-2.4-3.5-3.5c-1.2-1.2-2.4-2.2-3.5-3.3c-1.2-1.1-2.3-2-3.4-2.9c-1.1-0.9-2.2-1.7-3.2-2.5
				c-1-0.8-2-1.4-2.8-1.9c-0.8-0.6-1.6-1-2.3-1.4c-1.3-0.7-2-1.1-2-1.1s0.8,0.3,2.1,0.9c0.7,0.3,1.5,0.7,2.4,1.2
				c0.9,0.5,1.9,1,3,1.7c1.1,0.7,2.3,1.4,3.5,2.2c1.2,0.8,2.5,1.7,3.7,2.7c1.3,1,2.6,1.9,3.9,3c1.3,1.1,2.6,2.1,3.9,3.2
				c1.3,1.1,2.6,2.2,3.8,3.3c1.2,1.1,2.4,2.2,3.6,3.3c2.3,2.2,4.4,4.3,6.2,6.1c1.8,1.8,3.2,3.4,4.3,4.5c1,1.1,1.6,1.7,1.6,1.7
				L85.7,216.3z"/>
		</g>
		<g>
			<path class="st2" d="M84.6,217.7c0,0-2.1-0.9-5.1-2.5c-1.5-0.8-3.2-1.7-5.1-2.8c-0.9-0.5-1.8-1.1-2.8-1.7
				c-0.9-0.6-1.9-1.2-2.8-1.8c-1.9-1.2-3.7-2.5-5.4-3.8c-0.8-0.6-1.7-1.3-2.4-1.9c-0.7-0.6-1.5-1.2-2.1-1.7
				c-0.6-0.6-1.2-1.1-1.7-1.5c-0.5-0.5-0.9-0.9-1.3-1.2c-0.7-0.7-1.1-1.1-1.1-1.1s0.4,0.4,1.2,1c0.4,0.3,0.8,0.7,1.4,1.1
				c0.5,0.4,1.2,0.9,1.8,1.4c0.7,0.5,1.4,1,2.2,1.6c0.8,0.6,1.6,1.1,2.5,1.6c1.8,1.1,3.7,2.2,5.6,3.3c1,0.6,2,1,2.9,1.6
				c1,0.5,1.9,1,2.9,1.4c1.9,0.9,3.7,1.7,5.2,2.3c3.1,1.3,5.1,2,5.1,2L84.6,217.7z"/>
		</g>
		<g>
			<path class="st2" d="M84.9,221.5c0,0-0.2,0-0.7-0.1c-0.4-0.1-1.1-0.1-1.9-0.2c-0.8-0.1-1.9-0.2-3-0.2c-1.2,0-2.5,0-3.9,0
				c-0.7,0-1.5,0.1-2.3,0.1c-0.8,0.1-1.6,0.2-2.4,0.3c-0.8,0.1-1.7,0.3-2.5,0.4c-0.9,0.2-1.7,0.4-2.6,0.6c-1.8,0.5-3.6,1-5.3,1.7
				c-0.9,0.3-1.8,0.7-2.6,1.1l-1.3,0.6l-1.3,0.7c-1.7,0.9-3.3,2.1-4.9,3.2c-1.6,1.2-3.2,2.3-4.8,3.4c-1.6,1-3.2,1.9-4.8,2.6
				c-1.6,0.7-3.1,1.3-4.5,1.8c-2.9,0.9-5.4,1.1-7.2,1.1c-0.9,0-1.6-0.1-2-0.1c-0.5,0-0.7-0.1-0.7-0.1s0.2,0,0.7,0c0.5,0,1.1,0.1,2,0
				c1.7-0.1,4.2-0.5,7-1.5c1.4-0.5,2.8-1.2,4.3-2c1.5-0.8,3-1.8,4.5-2.9c1.5-1.1,3-2.3,4.4-3.6c1.5-1.2,3.1-2.6,4.9-3.6l1.3-0.8
				l1.3-0.7c0.9-0.5,1.8-1,2.7-1.4c1.8-0.9,3.7-1.5,5.5-2.1c0.9-0.3,1.8-0.5,2.7-0.8c0.9-0.2,1.8-0.4,2.6-0.6
				c0.9-0.1,1.7-0.3,2.5-0.4c0.8-0.1,1.6-0.2,2.4-0.3c1.5-0.2,2.9-0.3,4.2-0.3c1.3,0,2.3,0,3.3,0c0.9,0,1.6,0.1,2.1,0.1
				c0.5,0,0.8,0.1,0.8,0.1L84.9,221.5z"/>
		</g>
		<circle class="st2" cx="28.6" cy="221.1" r="3.7"/>
	</g>
	<g id="Hojas_3_1_">
		<path class="st4" d="M68,247.8c-0.8,11.8,24,31,23.1,66.5c-0.7,29.9-20.8,56.7-36.9,65.5c9-21.9-14.4-52.1-12.3-84.6
			C43.5,272.6,51.4,258.3,68,247.8z"/>
		<path class="st2" d="M68,247.8c-3.6,2.3-6.9,4.8-9.7,7.5c1.7,2.6,4.6,4.4,7.9,4.4c1.9,0,3.7-0.6,5.2-1.5
			C69.2,254.1,67.8,250.7,68,247.8z"/>
		<g>
			<path class="st2" d="M64.9,256.9c0,0,0,0.1-0.1,0.2c-0.1,0.1-0.2,0.3-0.3,0.6c-0.2,0.5-0.6,1.3-1,2.4c-0.4,1.1-0.8,2.4-1.2,4
				c-0.2,0.8-0.4,1.6-0.6,2.5c-0.2,0.9-0.4,1.9-0.6,2.8c-0.1,0.5-0.2,1-0.3,1.5c-0.1,0.5-0.2,1.1-0.2,1.6c-0.2,1.1-0.3,2.2-0.5,3.4
				c-0.1,1.2-0.2,2.4-0.4,3.6c-0.1,0.6-0.1,1.2-0.2,1.9c0,0.6-0.1,1.3-0.1,1.9c-0.1,1.3-0.1,2.6-0.2,3.9c0,1.3,0,2.7-0.1,4
				c0,1.3-0.1,2.7,0,4.1c0,1.4,0.1,2.7,0.1,4.1c0,2.7,0.3,5.5,0.4,8.2c0.1,1.3,0.2,2.7,0.3,4c0.1,1.3,0.3,2.6,0.4,3.9
				c0.3,2.6,0.5,5,0.9,7.4c0.3,2.3,0.7,4.6,1,6.6c0.3,2,0.6,3.9,0.9,5.6c0.3,1.7,0.6,3.1,0.8,4.3c0.4,2.4,0.7,3.7,0.7,3.7
				s-0.3-1.3-0.8-3.7c-0.3-1.2-0.6-2.6-1-4.2c-0.4-1.6-0.8-3.5-1.2-5.5c-0.4-2-0.8-4.2-1.3-6.6c-0.5-2.3-0.8-4.8-1.2-7.4
				c-0.2-1.3-0.4-2.6-0.6-3.9c-0.2-1.3-0.3-2.7-0.5-4c-0.3-2.7-0.7-5.5-0.8-8.2c-0.1-1.4-0.2-2.8-0.3-4.1c-0.1-1.4-0.1-2.8-0.2-4.1
				c0-1.4-0.1-2.7-0.1-4.1c0-1.3,0-2.7,0-4c0-0.7,0-1.3,0-1.9c0-0.6,0.1-1.3,0.1-1.9c0.1-1.3,0.1-2.5,0.2-3.7
				c0.1-1.2,0.2-2.4,0.3-3.5c0.1-0.6,0.1-1.1,0.2-1.7c0.1-0.5,0.2-1.1,0.2-1.6c0.2-1,0.3-2,0.5-3c0.2-0.9,0.4-1.8,0.5-2.7
				c0.4-1.7,0.7-3.2,1.1-4.4c0.3-1.2,0.7-2.1,1-2.8c0.1-0.3,0.3-0.6,0.3-0.8c0.1-0.2,0.1-0.2,0.1-0.2L64.9,256.9z"/>
		</g>
		<g>
			<path class="st2" d="M68.4,256.5c0,0,1,4.6,2.1,11.4c0.3,1.7,0.6,3.6,0.9,5.5c0.3,2,0.6,4,0.9,6.2c0.3,2.1,0.5,4.4,0.8,6.6
				c0.3,2.3,0.4,4.6,0.7,6.9c0.2,2.3,0.3,4.6,0.5,6.9c0.1,2.3,0.2,4.5,0.3,6.7c0,2.2,0.1,4.2,0,6.2c-0.1,2-0.1,3.9-0.2,5.6
				c-0.1,1.7-0.2,3.3-0.3,4.7c-0.1,1.4-0.3,2.6-0.4,3.6c-0.2,2-0.4,3.1-0.4,3.1s0.1-1.1,0.2-3.2c0-1,0.2-2.2,0.2-3.6
				c0-1.4,0-3,0.1-4.7c0-1.7-0.1-3.6-0.1-5.5c-0.1-2-0.2-4-0.4-6.2c-0.1-2.1-0.4-4.3-0.6-6.6c-0.3-2.2-0.5-4.5-0.8-6.8
				c-0.3-2.3-0.6-4.5-1-6.8c-0.4-2.2-0.7-4.4-1.1-6.5c-0.4-2.1-0.8-4.1-1.2-6.1c-0.4-1.9-0.8-3.7-1.2-5.4
				c-1.5-6.7-2.7-11.1-2.7-11.1L68.4,256.5z"/>
		</g>
	</g>
	<g id="Hojas_4_1_">
		<path class="st4" d="M81.5,376.4C80.3,382,58,400.9,41.9,400s-18.6-9.6-18.5-13.1s2.5-6.2,5.6-6.6c3.4-0.5,7.2,1.3,6.9,4
			s-4.8,5.6-10.4,3.5l-0.3,0.9c16,6.5,19.3-15.9,1.5-15.9c-13.5,0-23.3,14.4-23.3,30.4c0,16.8,13.1,37.5,37.1,36
			C89.7,436,84,381,81.5,376.4z"/>
		<path class="st2" d="M75.1,384.4c0,0,0,0.1,0,0.1c0,5.3,3.1,9.9,7.6,12.1c1.1-10.1-0.3-18.5-1.2-20.2
			C81.1,378.1,78.7,381.1,75.1,384.4z"/>
		<g>
			<path class="st2" d="M81.4,391c0,0-0.1,0.3-0.3,0.8c-0.1,0.3-0.2,0.6-0.4,1c-0.2,0.4-0.4,0.9-0.6,1.4c-0.2,0.5-0.5,1.1-0.8,1.7
				c-0.3,0.6-0.7,1.2-1.1,1.9c-0.4,0.7-0.8,1.4-1.3,2.1c-0.5,0.7-1,1.5-1.6,2.2c-1.1,1.5-2.5,3.1-3.9,4.6c-1.5,1.6-3.1,3.1-4.9,4.6
				c-1.8,1.5-3.8,2.9-5.9,4.2c-2.1,1.3-4.3,2.4-6.6,3.3c-2.3,0.9-4.7,1.6-7.1,2c-2.4,0.4-4.8,0.6-7.2,0.3c-2.3-0.2-4.5-0.6-6.5-1.4
				c-2-0.7-3.8-1.6-5.4-2.6c-1.5-1-2.9-2-4-3c-0.3-0.2-0.6-0.5-0.8-0.7c-0.2-0.2-0.5-0.5-0.7-0.7c-0.4-0.5-0.9-0.9-1.2-1.2
				c-0.7-0.8-1.2-1.4-1.6-1.9c-0.4-0.4-0.6-0.7-0.6-0.7s0.2,0.2,0.6,0.6c0.4,0.4,1,1,1.7,1.8c0.4,0.3,0.8,0.7,1.3,1.2
				c0.2,0.2,0.5,0.4,0.7,0.7c0.3,0.2,0.6,0.4,0.8,0.6c1.1,0.9,2.5,1.8,4.1,2.7c1.6,0.8,3.3,1.6,5.3,2.1c1.9,0.6,4.1,0.9,6.3,0.9
				c2.2,0.1,4.5-0.3,6.7-0.7c2.2-0.5,4.4-1.3,6.6-2.3c2.1-1,4.1-2.2,6-3.5c1.9-1.3,3.6-2.8,5.2-4.2c1.6-1.5,3-3,4.3-4.6
				c1.3-1.5,2.4-3.1,3.3-4.5c0.5-0.7,0.9-1.4,1.3-2.1c0.4-0.7,0.7-1.3,1.1-2c0.3-0.6,0.6-1.2,0.8-1.8c0.2-0.5,0.5-1,0.6-1.5
				c0.2-0.4,0.3-0.8,0.4-1.2c0.1-0.4,0.2-0.7,0.3-1c0.2-0.5,0.3-0.8,0.3-0.8L81.4,391z"/>
		</g>
		<ellipse class="st2" cx="30" cy="384.7" rx="5.3" ry="3.4"/>
	</g>
	<g id="Hojas_5_1_">
		<path class="st4" d="M79,437.5c4.9,19.6,7.2,33.7,1.8,54.6c-5.9,22.5-32.8,39.1-44.6,68.1c-19.9-19-17-56.4-8.9-72.1
			C44.8,454.4,71,447.8,79,437.5z"/>
		<path class="st2" d="M79,437.5c-2.6,3.4-7.2,6.3-12.8,10c2.6,4.9,7.7,8.3,13.6,8.3c1,0,2-0.1,2.9-0.3
			C81.9,449.8,80.6,443.9,79,437.5z"/>
		<g>
			<path class="st2" d="M75.1,451.1c0,0-0.2,0.2-0.7,0.6c-0.4,0.4-1.1,1-1.9,1.8c-0.8,0.8-1.8,1.8-2.8,3c-1.1,1.2-2.3,2.5-3.5,4
				c-1.3,1.5-2.6,3.2-4,5c-1.4,1.8-2.8,3.7-4.2,5.7c-0.7,1-1.4,2.1-2.1,3.1c-0.7,1.1-1.4,2.1-2.1,3.3c-0.7,1.1-1.4,2.2-2,3.4
				c-0.7,1.1-1.3,2.3-1.9,3.5c-0.6,1.2-1.3,2.3-1.9,3.5c-0.6,1.2-1.1,2.4-1.7,3.6c-0.5,1.2-1.2,2.3-1.6,3.5c-0.5,1.2-1,2.4-1.4,3.5
				c-0.4,1.2-1,2.3-1.3,3.4c-0.4,1.1-0.7,2.3-1.1,3.3c-0.4,1.1-0.7,2.1-1.1,3.2c-0.3,1-0.5,2-0.8,3c-0.5,1.9-1,3.7-1.3,5.3
				c-0.3,1.6-0.5,3-0.7,4.1c-0.4,2.3-0.6,3.6-0.6,3.6s0.2-1.3,0.4-3.6c0.1-1.2,0.3-2.6,0.5-4.2c0.3-1.6,0.6-3.4,1-5.4
				c0.2-1,0.4-2,0.6-3.1c0.3-1,0.6-2.1,0.9-3.2c0.3-1.1,0.6-2.3,0.9-3.4c0.3-1.2,0.8-2.3,1.1-3.5c0.4-1.2,0.8-2.4,1.2-3.6
				c0.4-1.2,1-2.4,1.4-3.7c0.5-1.2,1-2.5,1.5-3.7c0.6-1.2,1.1-2.4,1.7-3.7c0.6-1.2,1.1-2.5,1.8-3.6c0.6-1.2,1.3-2.4,1.9-3.5
				c0.6-1.2,1.3-2.3,1.9-3.4c0.7-1.1,1.3-2.2,2-3.3c1.4-2.1,2.6-4.2,4-6.1c1.3-1.9,2.6-3.7,3.8-5.3c1.2-1.6,2.4-3.1,3.4-4.4
				c1.1-1.3,2-2.4,2.8-3.3c0.8-0.9,1.4-1.6,1.9-2.1c0.4-0.5,0.7-0.7,0.7-0.7L75.1,451.1z"/>
		</g>
		<g>
			<path class="st2" d="M80,451.8c0,0-0.1,0.3-0.1,0.8c-0.1,0.6-0.3,1.3-0.5,2.3c-0.2,1-0.5,2.2-0.9,3.5c-0.3,1.3-0.8,2.8-1.3,4.5
				c-0.5,1.6-1.1,3.4-1.8,5.2c-0.6,1.8-1.4,3.7-2.2,5.7c-0.8,2-1.7,3.9-2.5,6c-0.9,2-1.9,4-2.9,6c-1,2-2,4-3.1,5.9
				c-1.1,1.9-2.1,3.8-3.1,5.6c-1.1,1.8-2.1,3.5-3.1,5.2c-1,1.6-2,3.1-2.9,4.6c-0.9,1.4-1.7,2.7-2.5,3.8c-0.8,1.1-1.4,2.1-2,2.9
				c-1.1,1.6-1.7,2.5-1.7,2.5s0.6-1,1.6-2.6c0.5-0.8,1.1-1.9,1.8-3c0.7-1.2,1.4-2.5,2.2-4c0.8-1.5,1.7-3,2.6-4.7
				c0.9-1.7,1.8-3.5,2.7-5.4c0.9-1.9,1.8-3.8,2.7-5.8c0.9-2,1.7-4,2.6-6.1c0.8-2,1.6-4.1,2.4-6.1c0.7-2.1,1.5-4.1,2.1-6
				c0.6-2,1.2-3.9,1.7-5.7c0.5-1.8,0.9-3.5,1.4-5.1c0.4-1.6,0.7-3.1,0.9-4.4c0.3-1.3,0.4-2.4,0.6-3.4c0.1-0.9,0.2-1.7,0.3-2.1
				c0.1-0.5,0.1-0.7,0.1-0.7L80,451.8z"/>
		</g>
	</g>
	<g id="Hojas_6">
		<path class="st4" d="M95.4,515.6c6.5,27.5,14.8,63.4,39.7,69.1C123,601.3,90.8,600,83.9,577c-4.1,19.3-9.9,23.7-12,36.9
			c-1.8,11.4,11.3,16,16.3,10.3c3.5-4-2.7-8-7.2-5.1c-2,1.3-3.6,4.8-3.6,4.8l-0.7-0.5c0.1-3,4.6-7,8.2-7.1c3.2-0.1,6,2.1,6.2,6.9
			c0.3,12.2-19.5,18.2-35.3-0.8C35.1,597.2,42.6,547.6,95.4,515.6z"/>
		<path class="st2" d="M95.4,515.6c-5.7,3.4-10.8,7.1-15.5,10.9c3,2.7,6.9,4.3,11.2,4.3c2.7,0,5.3-0.7,7.6-1.8
			C97.4,524.4,96.4,519.9,95.4,515.6z"/>
		<g>
			<path class="st2" d="M89.6,528.4c0,0-0.2,0.2-0.5,0.6c-0.3,0.4-0.8,1-1.3,1.7c-0.6,0.7-1.3,1.7-2.1,2.8c-0.8,1.1-1.7,2.3-2.6,3.7
				c-0.9,1.4-1.9,2.8-2.9,4.5c-1,1.6-2,3.3-3,5.1c-1,1.8-2,3.7-3,5.6c-0.5,1-1,2-1.4,2.9c-0.5,1-1,2-1.4,3c-0.9,2-1.8,4-2.5,6.1
				c-0.4,1-0.8,2-1.1,3c-0.4,1-0.6,2-1,3c-0.3,1-0.6,2-0.9,2.9c-0.3,1-0.5,1.9-0.7,2.8c-0.5,1.8-1,3.6-1.2,5.2
				c-0.3,1.6-0.6,3.1-0.8,4.5c-0.1,1.3-0.3,2.5-0.4,3.5c-0.2,1.9-0.3,3-0.3,3s0-1.1,0.1-3.1c0-1,0.1-2.2,0.1-3.5
				c0.1-1.3,0.3-2.9,0.5-4.5c0.1-1.7,0.5-3.4,0.8-5.3c0.2-0.9,0.3-1.9,0.5-2.9c0.2-1,0.5-2,0.7-3c0.3-1,0.5-2.1,0.8-3.1
				c0.3-1,0.6-2.1,0.9-3.1c0.6-2.1,1.4-4.2,2.1-6.3c0.4-1.1,0.8-2.1,1.2-3.1c0.4-1,0.8-2.1,1.2-3.1c0.9-2,1.8-4,2.7-5.9
				c0.9-1.9,1.8-3.7,2.7-5.4c0.9-1.7,1.8-3.3,2.6-4.8c0.8-1.5,1.7-2.8,2.4-4c0.7-1.2,1.4-2.2,1.9-3c0.5-0.8,1-1.5,1.3-1.9
				c0.3-0.4,0.5-0.7,0.5-0.7L89.6,528.4z"/>
		</g>
		<g>
			<path class="st2" d="M95.3,527.2c0,0,0,0.2-0.1,0.6c-0.1,0.4-0.1,1-0.3,1.8c-0.2,1.6-0.4,3.8-0.6,6.5c-0.3,5.4-0.4,12.8,0.8,20
				c0.3,1.8,0.6,3.6,1,5.3c0.4,1.7,0.9,3.5,1.4,5.1c1.1,3.2,2.4,6.2,3.8,8.5c0.4,0.6,0.7,1.1,1,1.7c0.4,0.5,0.7,1,1,1.5
				c0.6,0.9,1.3,1.6,1.8,2.3c1.1,1.2,1.7,1.9,1.7,1.9s-0.7-0.6-1.9-1.7c-0.6-0.6-1.3-1.3-2-2.1c-0.4-0.4-0.8-0.9-1.2-1.4
				c-0.4-0.5-0.8-1.1-1.2-1.6c-1.6-2.3-3.3-5.2-4.6-8.4c-0.7-1.6-1.3-3.3-1.9-5.1c-0.6-1.8-1.1-3.6-1.5-5.4
				c-1.8-7.3-2.4-14.9-2.5-20.6c-0.1-2.8,0-5.2,0.1-6.9c0-0.8,0.1-1.5,0.1-1.9c0-0.5,0.1-0.7,0.1-0.7L95.3,527.2z"/>
		</g>
		<ellipse class="st2" cx="83.5" cy="622.5" rx="5.7" ry="3.6"/>
	</g>
	<g id="Hojas_7">
		<path class="st4" d="M234.7,634c-10.8-2.6-61.5-29-91.7-30c-25.3-0.9-43.8,18.9-44.3,32c-0.4,9.5,4,13.9,10.3,14.2
			c4,0.2,7.2-2.3,7.4-5.8c0.1-2.7-1.8-6.5-7.8-5.8l-0.1,0.6c6-0.2,9,4.5,5.2,8.3c-1.4,1.4-4.6,1.5-6.3-1.3
			c-3.4-5.6,0.4-12.8,9.6-12.6c13.2,0.4,36.2,21.9,66.5,21.9C202.5,655.5,224.9,645.3,234.7,634z"/>
		<path class="st2" d="M219,641.1c0,1.5,0.3,3,0.7,4.3c6.1-3.4,11.3-7.3,14.9-11.4c-2-0.5-5.5-1.8-10-3.7
			C221.3,632.7,219,636.6,219,641.1z"/>
		<g>
			<path class="st2" d="M223.1,637.7c0,0-0.4,0-1.1-0.1c-0.7-0.1-1.8-0.2-3.1-0.3c-2.6-0.3-6.4-0.8-10.9-1.5
				c-2.3-0.3-4.7-0.7-7.3-1.2c-2.6-0.5-5.3-1-8.1-1.6c-2.8-0.6-5.6-1.3-8.5-2.1c-1.4-0.4-2.9-0.9-4.3-1.3c-1.4-0.5-2.9-1-4.3-1.5
				c-2.8-1-5.6-1.9-8.5-2.7c-2.8-0.8-5.7-1.5-8.4-2.1c-5.5-1.2-10.7-2.1-15.2-2.6c-4.5-0.5-8.2-0.6-10.9-0.4c-1.3,0.1-2.3,0.3-3,0.4
				c-0.7,0.2-1,0.3-1,0.3s0.3-0.1,1-0.3c0.7-0.2,1.7-0.4,3-0.6c2.6-0.4,6.4-0.4,11-0.2c4.5,0.3,9.8,0.9,15.4,1.8
				c2.8,0.5,5.7,1,8.6,1.7c2.9,0.6,5.9,1.4,8.8,2.3c1.4,0.4,2.9,0.8,4.3,1.3c1.4,0.4,2.9,0.8,4.3,1.1c2.9,0.6,5.7,1.2,8.5,1.7
				c2.8,0.5,5.4,0.9,8,1.2c2.5,0.3,5,0.6,7.2,0.8c4.5,0.5,8.2,0.7,10.8,0.9c1.3,0.1,2.3,0.1,3,0.2c0.7,0,1.1,0,1.1,0L223.1,637.7z"
				/>
		</g>
		<g>
			<path class="st2" d="M221.2,643c0,0-1.1,0-3.1,0.1c-1.9,0.1-4.7,0.1-8,0.1c-6.6,0-15.4-0.2-24.2-1c-4.4-0.4-8.8-0.9-12.8-1.5
				c-2-0.3-4-0.7-5.8-1.1c-1.8-0.4-3.6-0.8-5.2-1.3c-0.8-0.2-1.5-0.5-2.3-0.7c-0.7-0.3-1.4-0.5-2-0.7c-1.2-0.5-2.3-0.9-3.2-1.4
				c-0.9-0.4-1.5-0.8-2-1.1c-0.4-0.3-0.7-0.4-0.7-0.4s0.2,0.1,0.7,0.3c0.5,0.2,1.1,0.6,2,0.9c0.9,0.4,2,0.7,3.2,1.2
				c0.6,0.2,1.3,0.4,2,0.6c0.7,0.2,1.5,0.3,2.3,0.5c1.6,0.3,3.3,0.6,5.2,0.9c1.9,0.3,3.8,0.5,5.8,0.7c4.1,0.4,8.4,0.6,12.8,0.6
				c8.7,0.1,17.4-0.3,23.9-0.8c3.3-0.2,6-0.5,7.9-0.7c1.9-0.2,3-0.3,3-0.3L221.2,643z"/>
		</g>
		<circle class="st2" cx="111" cy="643.7" r="5.4"/>
	</g>
</g>
<g id="Hojas_Derecha">
	<g id="Hojas_1_1_">
		<path class="st4" d="M448.5,195c-13.3,2.2-27.5,10.5-32.7,21c-11.5-11.6-8.3-30.2,9.7-35.5c-28.3-34.5-34.1-94.6-12.7-119
			C431.5,40.2,466,48,466,70.7S435.3,95,433.3,81.9l0.4-0.7c5.3,2.4,11.4-0.6,10.9-6.2c-0.3-3.5-2.5-4.9-5.3-4.9
			c-4.3-0.1-6.2,2.5-6.3,8.1c-0.1,23.9,33,46,32.7,71.3C465.4,179.2,453.9,191.3,448.5,195z"/>
		<path class="st2" d="M441,196.8c-0.3-0.9-0.4-1.9-0.4-2.9c0-5.8,4.7-10.5,10.5-10.5c2.2,0,4.3,0.7,6,1.9c-3.1,5.1-6.4,8.1-8.6,9.6
			C446.1,195.4,443.5,196,441,196.8z"/>
		<g>
			<path class="st2" d="M448.9,186.5c0,0,0-0.3,0.1-0.9c0-0.6,0.1-1.5,0.2-2.6c0.2-2.2,0.3-5.5,0.4-9.3c0-1,0-2,0-3c0-1,0-2.1,0-3.2
				c0-1.1-0.1-2.2-0.1-3.4c-0.1-1.2-0.2-2.3-0.2-3.5c-0.1-1.2-0.2-2.4-0.4-3.6c-0.2-1.2-0.3-2.5-0.6-3.7c-0.3-1.2-0.5-2.5-0.9-3.6
				c-0.2-0.6-0.3-1.2-0.5-1.8l-0.7-1.7c-1-2.3-2.2-4.7-3.4-7c-1.1-2.3-2.2-4.6-3.3-6.8c-2.1-4.4-4-8.6-5.5-12.2
				c-1.5-3.6-2.7-6.6-3.5-8.8c-0.4-1.1-0.7-1.9-0.8-2.5c-0.2-0.6-0.3-0.9-0.3-0.9s0.1,0.3,0.3,0.9c0.2,0.6,0.5,1.4,1,2.5
				c0.9,2.1,2.2,5.1,4,8.6c1.7,3.5,3.9,7.5,6.2,11.8c1.2,2.1,2.4,4.3,3.7,6.6c1.2,2.3,2.6,4.5,3.8,6.8l0.9,1.9
				c0.3,0.6,0.5,1.3,0.7,1.9c0.5,1.3,0.8,2.6,1.2,3.8c0.4,1.3,0.6,2.6,0.9,3.8c0.2,1.3,0.4,2.5,0.6,3.7c0.2,1.2,0.3,2.4,0.5,3.6
				c0.1,1.2,0.2,2.4,0.3,3.5c0.1,1.1,0.2,2.2,0.2,3.3c0.1,1.1,0.1,2.1,0.2,3.1c0.2,4,0.2,7.3,0.2,9.6c0,1.2,0,2.1,0,2.7
				c0,0.6,0,1,0,1L448.9,186.5z"/>
		</g>
		<g>
			<path class="st2" d="M445.1,189.7c0,0-0.2-0.4-0.7-1.1c-0.4-0.7-1-1.8-1.8-3.2c-1.5-2.8-3.7-6.7-6.1-11.6c-1.2-2.4-2.5-5-3.8-7.8
				c-1.3-2.8-2.6-5.8-4-8.9c-1.3-3.1-2.7-6.3-3.9-9.6c-1.3-3.3-2.5-6.7-3.7-10.1c-0.6-1.7-1.1-3.4-1.7-5.1c-0.5-1.7-1-3.4-1.5-5.1
				c-0.9-3.4-1.8-6.8-2.4-10.1c-0.3-1.7-0.7-3.3-0.9-4.9c-0.1-0.8-0.2-1.6-0.4-2.4c-0.1-0.8-0.2-1.6-0.3-2.3
				c-0.1-0.8-0.2-1.5-0.3-2.3c0-0.7-0.1-1.5-0.1-2.2c0-0.7-0.1-1.4-0.1-2.1c0-0.7,0-1.4,0-2.1c0-0.7,0-1.3,0-2
				c0-0.6,0.1-1.3,0.1-1.9c0.1-1.2,0.1-2.4,0.2-3.5c0.1-1.1,0.2-2.1,0.4-3c0.2-0.9,0.4-1.8,0.5-2.5c0.1-0.4,0.2-0.7,0.2-1.1
				c0.1-0.3,0.2-0.6,0.3-0.9c0.2-0.6,0.3-1.1,0.4-1.5c0.2-0.8,0.4-1.2,0.4-1.2s-0.1,0.4-0.3,1.2c-0.1,0.4-0.2,0.9-0.4,1.5
				c-0.1,0.3-0.1,0.6-0.2,0.9c-0.1,0.3-0.1,0.7-0.2,1.1c-0.1,0.8-0.3,1.6-0.4,2.6c-0.1,0.9-0.2,2-0.2,3c-0.1,1.1-0.1,2.2-0.1,3.5
				c0,0.6,0,1.2,0,1.9c0,0.6,0.1,1.3,0.1,2c0,0.7,0.1,1.3,0.1,2c0.1,0.7,0.2,1.4,0.2,2.1c0.1,0.7,0.2,1.4,0.2,2.2
				c0.1,0.7,0.2,1.5,0.4,2.2c0.1,0.8,0.2,1.5,0.4,2.3c0.2,0.8,0.3,1.5,0.5,2.3c0.3,1.6,0.7,3.2,1.1,4.8c0.8,3.2,1.8,6.5,2.8,9.9
				c0.6,1.7,1.1,3.3,1.7,5c0.6,1.7,1.2,3.3,1.9,5c1.3,3.3,2.6,6.6,4,9.8c1.4,3.2,2.9,6.3,4.3,9.3c1.5,3,2.9,5.9,4.3,8.6
				c1.4,2.7,2.8,5.3,4.1,7.6c2.6,4.7,4.9,8.5,6.5,11.1c0.8,1.3,1.5,2.3,1.9,3c0.4,0.7,0.7,1.1,0.7,1.1L445.1,189.7z"/>
		</g>
		<g>
			<path class="st2" d="M444,194c0,0-0.1,0-0.2-0.1c-0.1-0.1-0.3-0.2-0.6-0.3c-0.5-0.2-1.4-0.6-2.4-0.9c-0.5-0.1-1.1-0.3-1.6-0.5
				c-0.6-0.2-1.2-0.3-1.9-0.4c-0.7-0.2-1.3-0.2-2-0.3c-0.7-0.1-1.4-0.1-2.1-0.1c-0.7,0-1.4,0-2.1,0.1c-0.7,0.1-1.4,0.1-2.1,0.3
				c-0.7,0.1-1.3,0.3-1.9,0.5c-0.6,0.2-1.2,0.4-1.6,0.7c-0.5,0.3-1,0.5-1.4,0.7c-0.4,0.3-0.7,0.5-1,0.7c-0.5,0.4-0.9,0.6-0.9,0.6
				s0.3-0.3,0.7-0.8c0.2-0.2,0.5-0.5,0.8-0.9c0.4-0.3,0.8-0.6,1.2-1c0.4-0.4,1-0.7,1.6-1.1c0.6-0.4,1.2-0.7,1.9-1
				c0.7-0.3,1.4-0.6,2.1-0.8c0.7-0.3,1.5-0.4,2.3-0.6c0.8-0.1,1.6-0.3,2.4-0.4c0.8-0.1,1.6-0.1,2.3-0.1c0.8,0,1.5,0,2.2,0
				c0.7,0,1.3,0.1,1.9,0.1c1.2,0.1,2.2,0.3,2.9,0.4c0.3,0.1,0.7,0.1,0.9,0.2c0.2,0,0.3,0.1,0.3,0.1L444,194z"/>
		</g>
		<circle class="st2" cx="438.9" cy="76.1" r="5.4"/>
	</g>
	<g id="Hojas_2_1_">
		<path class="st4" d="M494.5,219.6c-35-35.3-12-96.3,15.9-98.1c-1.5,13,2.5,25.3,6.1,33.6c1.8,4,4.7,18.8,2.5,25.8
			c7.9-14,30.2-15.8,40.4-12.3c3.9,14.3-8.9,35.2-22.7,41.3c9.9,1,16.3,13,21.3,14.4c2.6,0.7,6.5,0.1,6.8-3.4
			c0.2-2.7-1.5-4.2-3.5-4.3c-1.4-0.1-4.7,1.2-4.8,4l-0.6,0c-2.1-18.8,30.5-8.7,26.8,12.5c-2.3,13.4-11.4,19.7-30.5,16.5
			C529.1,245.9,512.1,219.8,494.5,219.6z"/>
		<path class="st2" d="M488.9,213.1c1.9-2.2,4.7-3.6,7.8-3.6c5.7,0,10.3,4.6,10.3,10.3c0,1.2-0.2,2.3-0.6,3.4c-4-2.1-8-3.5-11.9-3.6
			C492.5,217.5,490.6,215.3,488.9,213.1z"/>
		<g>
			<path class="st2" d="M490.9,213.1c0,0,0-0.3-0.1-0.8c-0.1-0.5-0.2-1.3-0.3-2.2c-0.1-1-0.2-2.1-0.4-3.4c-0.1-1.3-0.2-2.8-0.4-4.5
				c-0.1-1.6-0.2-3.4-0.3-5.3c-0.1-1.9-0.2-3.8-0.2-5.9c0-1,0-2.1,0-3.1c0-1.1,0-2.1,0-3.2c0-2.1,0.1-4.3,0.2-6.5
				c0.1-2.2,0.3-4.3,0.5-6.5c0.3-2.1,0.5-4.2,0.8-6.2c0.4-2,0.7-3.9,1.1-5.8c0.5-1.8,0.9-3.5,1.3-5.1c0.5-1.5,1-3,1.4-4.2
				c0.1-0.3,0.2-0.6,0.3-0.9c0.1-0.3,0.2-0.6,0.4-0.8c0.2-0.5,0.5-1,0.6-1.4c0.8-1.7,1.2-2.7,1.2-2.7s-0.4,1-1,2.8
				c-0.2,0.4-0.3,0.9-0.5,1.5c-0.1,0.3-0.2,0.5-0.3,0.8c-0.1,0.3-0.2,0.6-0.2,0.9c-0.3,1.3-0.7,2.7-1.1,4.3
				c-0.3,1.6-0.6,3.3-0.9,5.1c-0.3,1.8-0.4,3.8-0.7,5.7c-0.1,2-0.3,4.1-0.4,6.2c0,2.1-0.1,4.2,0,6.4c0.1,2.1,0.1,4.3,0.2,6.4
				c0.1,1.1,0.1,2.1,0.2,3.1c0.1,1,0.2,2,0.3,3c0.2,2,0.4,3.9,0.6,5.7c0.2,1.8,0.5,3.5,0.7,5.1c0.3,1.6,0.5,3,0.7,4.3
				c0.2,1.3,0.4,2.4,0.6,3.3c0.2,0.9,0.3,1.6,0.4,2.1c0.1,0.5,0.2,0.7,0.2,0.7L490.9,213.1z"/>
		</g>
		<g>
			<path class="st2" d="M495.6,212c0,0,0.9-2.6,2.1-6.6c1.2-4,2.7-9.4,4-14.8c0.7-2.7,1.3-5.4,1.9-8c0.6-2.6,1.1-5,1.5-7
				c0.4-2.1,0.7-3.8,0.9-5c0.2-1.2,0.3-1.9,0.3-1.9s0,0.7-0.1,1.9c-0.1,1.2-0.2,3-0.4,5.1c-0.2,2.1-0.4,4.5-0.7,7.2
				c-0.3,2.6-0.6,5.4-1,8.2c-0.7,5.6-1.6,11.1-2.4,15.3c-0.7,4.2-1.3,7-1.3,7L495.6,212z"/>
		</g>
		<g>
			<path class="st2" d="M499.4,213.1c0,0,0.6-0.6,1.6-1.7c1-1.1,2.5-2.6,4.3-4.5c1.8-1.8,3.9-3.9,6.2-6.1c1.2-1.1,2.4-2.2,3.6-3.3
				c1.2-1.1,2.5-2.2,3.8-3.3c1.3-1.1,2.6-2.2,3.9-3.2c1.3-1.1,2.6-2,3.9-3c1.3-1,2.6-1.8,3.7-2.7c1.2-0.8,2.4-1.5,3.5-2.2
				c1.1-0.7,2.1-1.2,3-1.7c0.9-0.5,1.7-0.9,2.4-1.2c1.3-0.6,2.1-0.9,2.1-0.9s-0.7,0.4-2,1.1c-0.6,0.4-1.4,0.8-2.3,1.4
				c-0.8,0.6-1.8,1.2-2.8,1.9c-1,0.8-2.1,1.6-3.2,2.5c-1.1,0.9-2.3,1.9-3.4,2.9c-1.1,1.1-2.4,2.1-3.5,3.3c-1.2,1.2-2.4,2.3-3.5,3.5
				c-1.2,1.2-2.3,2.4-3.4,3.6c-1.1,1.2-2.2,2.4-3.2,3.6c-2.1,2.4-3.9,4.6-5.5,6.5c-1.6,1.9-2.9,3.6-3.8,4.7
				c-0.9,1.2-1.4,1.8-1.4,1.8L499.4,213.1z"/>
		</g>
		<g>
			<path class="st2" d="M503.3,215c0,0,2.1-0.7,5.1-2c1.5-0.6,3.3-1.4,5.2-2.3c0.9-0.5,1.9-0.9,2.9-1.4c1-0.5,2-1,2.9-1.6
				c1.9-1.1,3.9-2.2,5.6-3.3c0.9-0.6,1.7-1.1,2.5-1.6c0.8-0.5,1.6-1,2.2-1.6c0.7-0.5,1.3-1,1.8-1.4c0.5-0.4,1-0.8,1.4-1.1
				c0.8-0.6,1.2-1,1.2-1s-0.4,0.4-1.1,1.1c-0.4,0.3-0.8,0.8-1.3,1.2c-0.5,0.5-1.1,1-1.7,1.5c-0.6,0.6-1.3,1.1-2.1,1.7
				c-0.7,0.6-1.6,1.2-2.4,1.9c-1.7,1.3-3.5,2.6-5.4,3.8c-0.9,0.6-1.9,1.2-2.8,1.8c-1,0.6-1.9,1.1-2.8,1.7c-1.8,1.1-3.6,2-5.1,2.8
				c-3,1.6-5.1,2.5-5.1,2.5L503.3,215z"/>
		</g>
		<g>
			<path class="st2" d="M503.6,217.5c0,0,0.3,0,0.8-0.1c0.5,0,1.2-0.1,2.1-0.1c0.9,0,2,0,3.3,0c1.3,0,2.7,0.1,4.2,0.3
				c0.8,0.1,1.6,0.2,2.4,0.3c0.8,0.1,1.7,0.3,2.5,0.4c0.9,0.2,1.7,0.4,2.6,0.6c0.9,0.2,1.8,0.5,2.7,0.8c1.8,0.6,3.7,1.3,5.5,2.1
				c0.9,0.4,1.8,0.9,2.7,1.4l1.3,0.7l1.3,0.8c1.7,1.1,3.3,2.4,4.9,3.6c1.5,1.3,2.9,2.5,4.4,3.6c1.5,1.1,3,2.1,4.5,2.9
				c1.5,0.8,2.9,1.5,4.3,2c2.8,1,5.2,1.4,7,1.5c0.9,0.1,1.5,0,2,0c0.5,0,0.7,0,0.7,0s-0.2,0-0.7,0.1c-0.5,0-1.1,0.1-2,0.1
				c-1.7,0-4.3-0.2-7.2-1.1c-1.5-0.4-3-1-4.5-1.8c-1.6-0.7-3.2-1.6-4.8-2.6c-1.6-1-3.2-2.2-4.8-3.4c-1.6-1.1-3.1-2.3-4.9-3.2
				l-1.3-0.7l-1.3-0.6c-0.9-0.4-1.7-0.8-2.6-1.1c-1.8-0.7-3.6-1.2-5.3-1.7c-0.9-0.2-1.8-0.4-2.6-0.6c-0.9-0.1-1.7-0.3-2.5-0.4
				c-0.8-0.1-1.6-0.2-2.4-0.3c-0.8-0.1-1.5-0.1-2.3-0.1c-1.4-0.1-2.8-0.1-3.9,0c-1.2,0-2.2,0.1-3,0.2c-0.8,0.1-1.5,0.2-1.9,0.2
				c-0.4,0.1-0.7,0.1-0.7,0.1L503.6,217.5z"/>
		</g>
		<circle class="st2" cx="560.5" cy="221.1" r="3.7"/>
	</g>
	<g id="Hojas_3_2_">
		<path class="st4" d="M521,247.8c0.8,11.8-24,31-23.1,66.5c0.7,29.9,20.8,56.7,36.9,65.5c-9-21.9,14.4-52.1,12.3-84.6
			C545.6,272.6,537.7,258.3,521,247.8z"/>
		<path class="st2" d="M521,247.8c3.6,2.3,6.9,4.8,9.7,7.5c-1.7,2.6-4.6,4.4-7.9,4.4c-1.9,0-3.7-0.6-5.2-1.5
			C519.8,254.1,521.2,250.7,521,247.8z"/>
		<g>
			<path class="st2" d="M527.7,255.1c0,0,0,0.1,0.1,0.2c0.1,0.2,0.2,0.4,0.3,0.8c0.3,0.7,0.6,1.6,1,2.8c0.4,1.2,0.7,2.7,1.1,4.4
				c0.2,0.8,0.3,1.7,0.5,2.7c0.2,0.9,0.3,1.9,0.5,3c0.1,0.5,0.2,1.1,0.2,1.6c0.1,0.5,0.1,1.1,0.2,1.7c0.1,1.1,0.2,2.3,0.3,3.5
				c0.1,1.2,0.1,2.4,0.2,3.7c0,0.6,0.1,1.3,0.1,1.9c0,0.6,0,1.3,0,1.9c0,1.3,0,2.6,0,4c0,1.3-0.1,2.7-0.1,4.1
				c-0.1,1.4-0.1,2.7-0.2,4.1c-0.1,1.4-0.2,2.8-0.3,4.1c-0.2,2.8-0.5,5.5-0.8,8.2c-0.2,1.4-0.3,2.7-0.5,4c-0.2,1.3-0.4,2.6-0.6,3.9
				c-0.4,2.6-0.7,5-1.2,7.4c-0.4,2.3-0.9,4.5-1.3,6.6c-0.4,2-0.8,3.9-1.2,5.5c-0.4,1.6-0.7,3.1-1,4.2c-0.5,2.3-0.8,3.7-0.8,3.7
				s0.2-1.4,0.7-3.7c0.2-1.2,0.5-2.6,0.8-4.3c0.3-1.7,0.7-3.5,0.9-5.6c0.3-2,0.6-4.3,1-6.6c0.4-2.3,0.6-4.8,0.9-7.4
				c0.1-1.3,0.3-2.6,0.4-3.9c0.1-1.3,0.2-2.7,0.3-4c0.2-2.7,0.4-5.4,0.4-8.2c0-1.4,0.1-2.7,0.1-4.1c0-1.4,0-2.7,0-4.1
				c0-1.3,0-2.7-0.1-4c-0.1-1.3-0.1-2.6-0.2-3.9c0-0.6-0.1-1.3-0.1-1.9c-0.1-0.6-0.1-1.2-0.2-1.9c-0.1-1.2-0.2-2.4-0.4-3.6
				c-0.2-1.2-0.3-2.3-0.5-3.4c-0.1-0.5-0.2-1.1-0.2-1.6c-0.1-0.5-0.2-1-0.3-1.5c-0.2-1-0.4-2-0.6-2.8c-0.2-0.9-0.4-1.7-0.6-2.5
				c-0.4-1.6-0.8-2.9-1.2-4c-0.4-1.1-0.7-1.9-1-2.4c-0.1-0.2-0.2-0.4-0.3-0.6c-0.1-0.1-0.1-0.2-0.1-0.2L527.7,255.1z"/>
		</g>
		<g>
			<path class="st2" d="M524.5,257.5c0,0-1.2,4.4-2.7,11.1c-0.4,1.7-0.8,3.5-1.2,5.4c-0.4,1.9-0.8,4-1.2,6.1
				c-0.4,2.1-0.8,4.3-1.1,6.5c-0.4,2.2-0.7,4.5-1,6.8c-0.3,2.3-0.6,4.5-0.8,6.8c-0.2,2.2-0.5,4.4-0.6,6.6c-0.1,2.1-0.3,4.2-0.4,6.2
				c-0.1,2-0.1,3.8-0.1,5.5c0,1.7,0,3.3,0.1,4.7c0,1.4,0.1,2.6,0.2,3.6c0.1,2,0.2,3.2,0.2,3.2s-0.1-1.1-0.4-3.1
				c-0.1-1-0.3-2.2-0.4-3.6c-0.1-1.4-0.2-3-0.3-4.7c-0.1-1.7-0.1-3.6-0.2-5.6c0-2,0-4.1,0-6.2c0-2.2,0.2-4.4,0.3-6.7
				c0.1-2.3,0.3-4.6,0.5-6.9c0.2-2.3,0.4-4.6,0.7-6.9c0.3-2.3,0.5-4.5,0.8-6.6c0.3-2.1,0.6-4.2,0.9-6.2c0.3-2,0.6-3.8,0.9-5.5
				c1.1-6.8,2.1-11.4,2.1-11.4L524.5,257.5z"/>
		</g>
	</g>
	<g id="Hojas_4_2_">
		<path class="st4" d="M507.5,376.4c1.3,5.6,23.5,24.5,39.6,23.6s18.6-9.6,18.5-13.1s-2.5-6.2-5.6-6.6c-3.4-0.5-7.2,1.3-6.9,4
			s4.8,5.6,10.4,3.5l0.3,0.9c-16,6.5-19.3-15.9-1.5-15.9c13.5,0,23.3,14.4,23.3,30.4c0,16.8-13.1,37.5-37.1,36
			C499.3,436,505,381,507.5,376.4z"/>
		<path class="st2" d="M513.9,384.4c0,0,0,0.1,0,0.1c0,5.3-3.1,9.9-7.6,12.1c-1.1-10.1,0.3-18.5,1.2-20.2
			C507.9,378.1,510.3,381.1,513.9,384.4z"/>
		<g>
			<path class="st2" d="M512.4,389.4c0,0,0.1,0.3,0.3,0.8c0.1,0.3,0.2,0.6,0.3,1c0.1,0.3,0.3,0.7,0.4,1.2c0.1,0.4,0.4,0.9,0.6,1.5
				c0.2,0.5,0.5,1.1,0.8,1.8c0.3,0.6,0.7,1.3,1.1,2c0.4,0.7,0.8,1.4,1.3,2.1c0.9,1.5,2.1,3,3.3,4.5c1.3,1.5,2.7,3.1,4.3,4.6
				c1.6,1.5,3.3,3,5.2,4.2c1.9,1.3,3.9,2.5,6,3.5c2.1,1,4.3,1.8,6.6,2.3c2.2,0.5,4.5,0.8,6.7,0.7c2.2,0,4.3-0.3,6.3-0.9
				c2-0.5,3.7-1.3,5.3-2.1c1.6-0.9,2.9-1.8,4.1-2.7c0.3-0.2,0.6-0.4,0.8-0.6c0.3-0.2,0.5-0.4,0.7-0.7c0.5-0.4,0.9-0.8,1.3-1.2
				c0.7-0.7,1.3-1.4,1.7-1.8c0.4-0.4,0.6-0.6,0.6-0.6s-0.2,0.2-0.6,0.7c-0.4,0.4-0.9,1.1-1.6,1.9c-0.4,0.4-0.8,0.8-1.2,1.2
				c-0.2,0.2-0.5,0.5-0.7,0.7c-0.3,0.2-0.5,0.5-0.8,0.7c-1.1,1-2.4,2-4,3c-1.6,0.9-3.3,1.9-5.4,2.6c-2,0.7-4.2,1.2-6.5,1.4
				c-2.3,0.2-4.7,0-7.2-0.3c-2.4-0.4-4.8-1.1-7.1-2c-2.3-0.9-4.5-2.1-6.6-3.3c-2.1-1.2-4-2.7-5.9-4.2c-1.8-1.5-3.5-3-4.9-4.6
				c-1.5-1.6-2.8-3.1-3.9-4.6c-0.6-0.8-1.1-1.5-1.6-2.2c-0.5-0.7-0.9-1.4-1.3-2.1c-0.4-0.7-0.8-1.3-1.1-1.9
				c-0.3-0.6-0.6-1.1-0.8-1.7c-0.2-0.5-0.4-1-0.6-1.4c-0.1-0.4-0.3-0.7-0.4-1c-0.2-0.5-0.3-0.8-0.3-0.8L512.4,389.4z"/>
		</g>
		<ellipse class="st2" cx="559" cy="384.7" rx="5.3" ry="3.4"/>
	</g>
	<g id="Hojas_5_2_">
		<path class="st4" d="M510,437.5c-4.9,19.6-7.2,33.7-1.8,54.6c5.9,22.5,32.8,39.1,44.6,68.1c19.9-19,17-56.4,8.9-72.1
			C544.3,454.4,518,447.8,510,437.5z"/>
		<path class="st2" d="M510,437.5c2.6,3.4,7.2,6.3,12.8,10c-2.6,4.9-7.7,8.3-13.6,8.3c-1,0-2-0.1-2.9-0.3
			C507.1,449.8,508.4,443.9,510,437.5z"/>
		<g>
			<path class="st2" d="M517.4,447.5c0,0,0.2,0.2,0.7,0.7c0.5,0.5,1.1,1.2,1.9,2.1c0.8,0.9,1.7,2,2.8,3.3c1,1.3,2.2,2.7,3.4,4.4
				c1.2,1.6,2.5,3.4,3.8,5.3c1.3,1.9,2.6,4,4,6.1c0.6,1.1,1.3,2.2,2,3.3c0.7,1.1,1.3,2.3,1.9,3.4c0.6,1.2,1.2,2.4,1.9,3.5
				c0.6,1.2,1.2,2.4,1.8,3.6c0.6,1.2,1.1,2.4,1.7,3.7c0.5,1.2,1,2.5,1.5,3.7c0.5,1.2,1,2.4,1.4,3.7c0.4,1.2,0.8,2.4,1.2,3.6
				c0.4,1.2,0.8,2.4,1.1,3.5c0.3,1.2,0.6,2.3,0.9,3.4c0.3,1.1,0.6,2.2,0.9,3.2c0.2,1.1,0.4,2.1,0.6,3.1c0.4,2,0.8,3.8,1,5.4
				c0.2,1.6,0.4,3,0.5,4.2c0.3,2.3,0.4,3.6,0.4,3.6s-0.2-1.3-0.6-3.6c-0.2-1.1-0.5-2.5-0.7-4.1c-0.3-1.6-0.8-3.4-1.3-5.3
				c-0.3-1-0.5-2-0.8-3c-0.3-1-0.7-2.1-1.1-3.2c-0.4-1.1-0.7-2.2-1.1-3.3c-0.4-1.1-0.9-2.3-1.3-3.4c-0.5-1.2-0.9-2.3-1.4-3.5
				c-0.5-1.2-1.1-2.3-1.6-3.5c-0.6-1.2-1.1-2.4-1.7-3.6c-0.6-1.2-1.3-2.3-1.9-3.5c-0.6-1.2-1.2-2.3-1.9-3.5c-0.7-1.1-1.4-2.3-2-3.4
				c-0.7-1.1-1.4-2.2-2.1-3.3c-0.7-1.1-1.4-2.1-2.1-3.1c-1.5-2-2.8-4-4.2-5.7c-1.4-1.8-2.7-3.5-4-5c-1.3-1.5-2.5-2.9-3.5-4
				c-1.1-1.2-2-2.2-2.8-3c-0.8-0.8-1.4-1.4-1.9-1.8c-0.4-0.4-0.7-0.6-0.7-0.6L517.4,447.5z"/>
		</g>
		<g>
			<path class="st2" d="M514,451.2c0,0,0,0.3,0.1,0.7c0,0.5,0.2,1.2,0.3,2.1c0.1,0.9,0.3,2.1,0.6,3.4c0.2,1.3,0.6,2.8,0.9,4.4
				c0.4,1.6,0.8,3.3,1.4,5.1c0.5,1.8,1.1,3.7,1.7,5.7c0.6,2,1.4,4,2.1,6c0.8,2,1.6,4.1,2.4,6.1c0.9,2,1.7,4.1,2.6,6.1
				c0.9,2,1.8,3.9,2.7,5.8c0.9,1.9,1.8,3.7,2.7,5.4c0.9,1.7,1.8,3.3,2.6,4.7c0.8,1.5,1.5,2.8,2.2,4c0.7,1.2,1.3,2.2,1.8,3
				c1,1.7,1.6,2.6,1.6,2.6s-0.6-0.9-1.7-2.5c-0.6-0.8-1.2-1.8-2-2.9c-0.8-1.1-1.6-2.4-2.5-3.8c-0.9-1.4-1.9-2.9-2.9-4.6
				c-1-1.6-2-3.4-3.1-5.2c-1.1-1.8-2.1-3.7-3.1-5.6c-1.1-1.9-2-3.9-3.1-5.9c-1-2-1.9-4-2.9-6c-0.9-2-1.8-4-2.5-6
				c-0.8-2-1.5-3.9-2.2-5.7c-0.7-1.8-1.2-3.6-1.8-5.2c-0.5-1.6-1-3.1-1.3-4.5c-0.4-1.3-0.7-2.5-0.9-3.5c-0.2-1-0.4-1.7-0.5-2.3
				c-0.1-0.5-0.1-0.8-0.1-0.8L514,451.2z"/>
		</g>
	</g>
	<g id="Hojas_6_1_">
		<path class="st4" d="M493.7,515.6c-6.5,27.5-14.8,63.4-39.7,69.1c12.1,16.6,44.2,15.3,51.1-7.8c4.1,19.3,9.9,23.7,12,36.9
			c1.8,11.4-11.3,16-16.3,10.3c-3.5-4,2.7-8,7.2-5.1c2,1.3,3.6,4.8,3.6,4.8l0.7-0.5c-0.1-3-4.6-7-8.2-7.1c-3.2-0.1-6,2.1-6.2,6.9
			c-0.3,12.2,19.5,18.2,35.3-0.8C554,597.2,546.4,547.6,493.7,515.6z"/>
		<path class="st2" d="M493.7,515.6c5.7,3.4,10.8,7.1,15.5,10.9c-3,2.7-6.9,4.3-11.2,4.3c-2.7,0-5.3-0.7-7.6-1.8
			C491.6,524.4,492.7,519.9,493.7,515.6z"/>
		<g>
			<path class="st2" d="M503.3,525.3c0,0,0.2,0.2,0.5,0.7c0.3,0.5,0.8,1.1,1.3,1.9c0.6,0.8,1.2,1.8,1.9,3c0.7,1.2,1.5,2.5,2.4,4
				c0.8,1.5,1.7,3.1,2.6,4.8c0.9,1.7,1.8,3.5,2.7,5.4c0.9,1.9,1.8,3.9,2.7,5.9c0.4,1,0.8,2.1,1.2,3.1c0.4,1,0.8,2.1,1.2,3.1
				c0.7,2.1,1.5,4.2,2.1,6.3c0.3,1.1,0.6,2.1,0.9,3.1c0.3,1,0.5,2.1,0.8,3.1c0.2,1,0.5,2,0.7,3c0.2,1,0.4,2,0.5,2.9
				c0.3,1.9,0.7,3.7,0.8,5.3c0.2,1.7,0.3,3.2,0.5,4.5c0,1.4,0.1,2.5,0.1,3.5c0.1,1.9,0.1,3.1,0.1,3.1s-0.1-1.1-0.3-3
				c-0.1-1-0.2-2.1-0.4-3.5c-0.2-1.3-0.5-2.8-0.8-4.5c-0.2-1.6-0.7-3.4-1.2-5.2c-0.2-0.9-0.5-1.9-0.7-2.8c-0.3-0.9-0.6-1.9-0.9-2.9
				c-0.3-1-0.6-2-1-3c-0.4-1-0.8-2-1.1-3c-0.7-2-1.6-4-2.5-6.1c-0.4-1-0.9-2-1.4-3c-0.5-1-1-2-1.4-2.9c-1-1.9-2-3.8-3-5.6
				c-1-1.8-2-3.5-3-5.1c-1-1.6-2-3.1-2.9-4.5c-0.9-1.4-1.8-2.6-2.6-3.7c-0.8-1.1-1.5-2-2.1-2.8c-0.6-0.8-1-1.3-1.3-1.7
				c-0.3-0.4-0.5-0.6-0.5-0.6L503.3,525.3z"/>
		</g>
		<g>
			<path class="st2" d="M498.7,526.5c0,0,0,0.2,0.1,0.7c0,0.4,0.1,1.1,0.1,1.9c0.1,1.7,0.1,4,0.1,6.9c-0.1,5.7-0.7,13.2-2.5,20.6
				c-0.4,1.8-1,3.6-1.5,5.4c-0.6,1.8-1.2,3.5-1.9,5.1c-1.4,3.2-3,6.1-4.6,8.4c-0.4,0.6-0.8,1.1-1.2,1.6c-0.4,0.5-0.8,1-1.2,1.4
				c-0.7,0.9-1.5,1.5-2,2.1c-1.2,1.1-1.9,1.7-1.9,1.7s0.6-0.7,1.7-1.9c0.5-0.6,1.2-1.4,1.8-2.3c0.3-0.5,0.7-0.9,1-1.5
				c0.3-0.5,0.7-1.1,1-1.7c1.4-2.4,2.7-5.3,3.8-8.5c0.5-1.6,1-3.3,1.4-5.1c0.4-1.8,0.8-3.5,1-5.3c1.1-7.2,1.1-14.5,0.8-20
				c-0.2-2.7-0.4-5-0.6-6.5c-0.1-0.8-0.2-1.4-0.3-1.8c-0.1-0.4-0.1-0.6-0.1-0.6L498.7,526.5z"/>
		</g>
		<ellipse class="st2" cx="505.6" cy="622.5" rx="5.7" ry="3.6"/>
	</g>
	<g id="Hojas_7_1_">
		<path class="st4" d="M354.4,634c10.8-2.6,61.5-29,91.7-30c25.3-0.9,43.8,18.9,44.3,32c0.4,9.5-4,13.9-10.3,14.2
			c-4,0.2-7.2-2.3-7.4-5.8c-0.1-2.7,1.8-6.5,7.8-5.8l0.1,0.6c-6-0.2-9,4.5-5.2,8.3c1.4,1.4,4.6,1.5,6.3-1.3
			c3.4-5.6-0.4-12.8-9.6-12.6c-13.2,0.4-36.2,21.9-66.5,21.9C386.5,655.5,364.2,645.3,354.4,634z"/>
		<path class="st2" d="M370,641.1c0,1.5-0.3,3-0.7,4.3c-6.1-3.4-11.3-7.3-14.9-11.4c2-0.5,5.5-1.8,10-3.7
			C367.8,632.7,370,636.6,370,641.1z"/>
		<g>
			<path class="st2" d="M365.6,632.8c0,0,0.4,0,1.1,0c0.7,0,1.7-0.1,3-0.2c2.6-0.2,6.3-0.4,10.8-0.9c2.2-0.2,4.7-0.5,7.2-0.8
				c2.6-0.3,5.2-0.7,8-1.2c2.8-0.5,5.6-1,8.5-1.7c1.4-0.3,2.9-0.7,4.3-1.1c1.4-0.4,2.9-0.8,4.3-1.3c2.9-0.9,5.9-1.7,8.8-2.3
				c2.9-0.6,5.8-1.2,8.6-1.7c5.6-0.9,10.9-1.5,15.4-1.8c4.5-0.3,8.3-0.2,11,0.2c1.3,0.2,2.3,0.4,3,0.6c0.7,0.2,1,0.3,1,0.3
				s-0.4-0.1-1-0.3c-0.7-0.2-1.7-0.3-3-0.4c-2.6-0.2-6.4-0.1-10.9,0.4c-4.5,0.5-9.7,1.4-15.2,2.6c-2.7,0.6-5.6,1.3-8.4,2.1
				c-2.8,0.8-5.7,1.7-8.5,2.7c-1.4,0.5-2.9,1-4.3,1.5c-1.5,0.4-2.9,0.9-4.3,1.3c-2.9,0.8-5.8,1.5-8.5,2.1c-2.8,0.6-5.5,1.2-8.1,1.6
				c-2.6,0.5-5,0.9-7.3,1.2c-4.5,0.7-8.3,1.2-10.9,1.5c-1.3,0.1-2.4,0.3-3.1,0.3c-0.7,0.1-1.1,0.1-1.1,0.1L365.6,632.8z"/>
		</g>
		<g>
			<path class="st2" d="M368.2,638c0,0,1.1,0.1,3,0.3c1.9,0.2,4.6,0.4,7.9,0.7c6.5,0.5,15.2,0.9,23.9,0.8c4.4-0.1,8.7-0.3,12.8-0.6
				c2-0.2,4-0.4,5.8-0.7c1.8-0.3,3.6-0.6,5.2-0.9c0.8-0.2,1.6-0.4,2.3-0.5c0.7-0.2,1.4-0.4,2-0.6c1.3-0.4,2.4-0.8,3.2-1.2
				c0.9-0.3,1.6-0.7,2-0.9c0.5-0.2,0.7-0.3,0.7-0.3s-0.2,0.1-0.7,0.4c-0.4,0.3-1.1,0.7-2,1.1c-0.9,0.4-1.9,0.9-3.2,1.4
				c-0.6,0.2-1.3,0.5-2,0.7c-0.7,0.2-1.5,0.5-2.3,0.7c-1.6,0.5-3.3,0.9-5.2,1.3c-1.8,0.4-3.8,0.8-5.8,1.1c-4.1,0.7-8.5,1.2-12.8,1.5
				c-8.8,0.8-17.6,1-24.2,1c-3.3,0-6.1,0-8-0.1c-1.9-0.1-3.1-0.1-3.1-0.1L368.2,638z"/>
		</g>
		<circle class="st2" cx="478" cy="643.7" r="5.4"/>
	</g>
</g>
<g id="Espiga_I">
	<path class="st2" d="M187.8,195.1c8.4,16.4,18,6.2,18.7,6c0.4-0.1,14,1.9,9.8-17.6c-2.1,4.2-7.5,5.2-9.8,8s-1.4,6.6-1.4,6.6
		s-2.4-2.3-5.6-3.1C195,194,191.3,196.1,187.8,195.1z"/>
	<path class="st2" d="M183.5,179.9c4.4,15.7,14.9,8.8,15.6,8.8c0.4,0,12.2,4.3,12.1-13.2c-2.7,3.2-7.7,3-10.2,5s-2.5,5.4-2.5,5.4
		s-1.7-2.5-4.5-3.7C190.2,180.4,187.1,182,183.5,179.9z"/>
	<path class="st2" d="M183.8,167.6c1.9,17.8,25.3,14.2,23.4-3.7c-2.7,3-5.5,2.3-7.9,4.1s-3.7,5.3-3.7,5.3s-1-2.5-3-3.9
		C189.7,167.5,186,169.2,183.8,167.6z"/>
	<path class="st2" d="M185.7,154.4c-4.1,18.1,21.1,16.5,18.3-0.4c-2.3,2.6-4.1,1.6-6.1,3.3c-2,1.6-2.3,4.9-2.3,4.9s-1.9-2.3-3.6-3.5
		C189.6,156.9,187.1,157.4,185.7,154.4z"/>
	<path class="st2" d="M189.1,148.4c0,4.3,1.9,6.6,5.6,6.6c2.2,0,4.2-2.3,4.2-6.2c0-4.6-3.4-9.6-2.8-13.6
		C192.6,137.4,189.1,143.7,189.1,148.4z"/>
</g>
<g id="Espiga_D">
	<path class="st2" d="M400.9,195.1c-8.4,16.4-18,6.2-18.7,6c-0.4-0.1-14,1.9-9.8-17.6c2.1,4.2,7.5,5.2,9.8,8s1.4,6.6,1.4,6.6
		s2.4-2.3,5.6-3.1C393.6,194,397.4,196.1,400.9,195.1z"/>
	<path class="st2" d="M405.1,179.9c-4.4,15.7-14.9,8.8-15.6,8.8c-0.4,0-12.2,4.3-12.1-13.2c2.7,3.2,7.7,3,10.2,5
		c2.5,2,2.5,5.4,2.5,5.4s1.7-2.5,4.5-3.7C398.4,180.4,401.5,182,405.1,179.9z"/>
	<path class="st2" d="M404.8,167.6c-1.9,17.8-25.3,14.2-23.4-3.7c2.7,3,5.5,2.3,7.9,4.1c2.4,1.8,3.7,5.3,3.7,5.3s1-2.5,3-3.9
		C398.9,167.5,402.6,169.2,404.8,167.6z"/>
	<path class="st2" d="M402.9,154.4c4.1,18.1-21.1,16.5-18.3-0.4c2.3,2.6,4.1,1.6,6.1,3.3c2,1.6,2.3,4.9,2.3,4.9s1.9-2.3,3.6-3.5
		C399.1,156.9,401.6,157.4,402.9,154.4z"/>
	<path class="st2" d="M399.5,148.4c0,4.3-1.9,6.6-5.6,6.6c-2.2,0-4.2-2.3-4.2-6.2c0-4.6,3.4-9.6,2.8-13.6
		C396,137.4,399.5,143.7,399.5,148.4z"/>
</g>
<g id="Condor">
	<path d="M275,163h6c0,0-4.1,12.4-3.8,14.9c0.4,2.6,12.9,1.9,9.4,11.7c0,0-3.3-8.1-9.7-7.1c-4.1,0.7-8.5,12.8-8.5,12.8
		c-6-3.1,2.4-10.8,0.6-10.6c-3.4,0.3-7.2,8.7-7.2,8.7c-5.2-4.3,4.5-9,2.2-9.9c-3.1-1.3-7.1,4.9-7.1,4.9c-3.3-7.8,12.8-9.4,15-11.2
		C274.1,175.5,275,163,275,163z"/>
	<path d="M314.7,163h-6c0,0,4.1,12.4,3.8,14.9c-0.4,2.6-12.9,1.9-9.4,11.7c0,0,3.3-8.1,9.7-7.1c4.1,0.7,8.5,12.8,8.5,12.8
		c6-3.1-2.4-10.8-0.6-10.6c3.4,0.3,7.2,8.7,7.2,8.7c5.2-4.3-4.5-9-2.2-9.9c3.1-1.3,7.1,4.9,7.1,4.9c3.3-7.8-12.8-9.4-15-11.2
		S314.7,163,314.7,163z"/>
	<path d="M274.2,141.8c2,7,7.7,7.9,9.7,1.5c4.1,2.9,5.9,15.4,3.4,16.2c-3.5,1.1-2.8-7.2-5.2-7.4s-2.4,7.7-4.7,7.4
		c-3.5-0.4-1.6-8.5-2.8-9.2c-1.4-0.8-4.4,6.9-7.1,4.9S270.3,143.6,274.2,141.8z"/>
	<path d="M314.9,141.8c-2,7-7.7,7.9-9.7,1.5c-4.1,2.9-5.9,15.4-3.4,16.2c3.5,1.1,2.8-7.2,5.2-7.4c2.4-0.2,2.4,7.7,4.7,7.4
		c3.5-0.4,1.6-8.5,2.8-9.2c1.4-0.8,4.4,6.9,7.1,4.9S318.8,143.6,314.9,141.8z"/>
	<path d="M270.4,139.7c3.1,1.3,4.7-4.7,6.1-4.4c1.5,0.3-1.1,8.4,2.3,8.4c3.5,0,2.7-6.4,4.7-6.8c1.5-0.3,2,6.9,4.9,6.3
		c3.2-0.6,2.3-15.5-6.8-16.9C272.9,124.9,266.3,137.9,270.4,139.7z"/>
	<path d="M318.9,139.7c-3.1,1.3-4.7-4.7-6.1-4.4c-1.5,0.3,1.1,8.4-2.3,8.4c-3.5,0-2.7-6.4-4.7-6.8c-1.5-0.3-2,6.9-4.9,6.3
		c-3.2-0.6-2.3-15.5,6.8-16.9C316.4,124.9,323,137.9,318.9,139.7z"/>
	<path d="M276.8,100.8c2.4,11,8.4,12.1,10.8,3.7c2.5,10.3,12,9.6,12.5-1.1c4.2,9.3,11.2,9.3,11.3-2.6c5.9,5.3,8,20.3,3.1,21.1
		c-3,0.5-4.3-7.1-6.4-6.1c-1.3,0.6,1.5,7.6-3.6,8.1c-4.3,0.4-3.5-6.7-5.4-6.4c-1.5,0.2,0.5,9.2-4.7,9.2c-4.8,0-3.4-9.1-5.2-9.2
		c-1.3-0.1-0.1,6.3-4.5,6.3c-3.9-0.1-2.9-7.9-5.1-8c-1.4-0.1-0.6,6.1-5.1,6.3C271,122.3,271.8,105.4,276.8,100.8z"/>
	<path d="M269.8,87.9c2.6-0.1,5.9-3.1,6.7-6.6c1.2,10,9.7,11.3,10.9,1.5c3.8,13,13.3,10.4,13.5,0.1c3.9,8.6,10.7,8.3,12.2-1.2
		c1.1,3.3,3.4,6.6,5.4,6.3c1.6,7.1,1.4,11.9-2.9,12.3c-4.2,0.4-3.3-8.1-5.2-7.6s0.8,8.8-4.9,9.6c-4.3,0.6-3.8-7.6-4.7-7.4
		c-1.2,0.2-0.5,10.2-6.3,9.9c-5.4-0.3-4.1-10.1-5.4-10.3c-1.4-0.1-0.7,7.2-5.3,7.3c-4.3,0.1-4.3-9.3-5.6-9.3c-1.7,0-1,7.6-4.4,7.6
		C270.4,100,269.2,94.1,269.8,87.9z"/>
	<path d="M302.4,8.8c-0.9-0.7-1.5-0.7-2.3-1.9c-0.8-1.2-0.5-2.9-2-4.3c-1.5-1.4-12.8-1.2-14.4,1s-1,5.3,0.3,7.3
		c-2.3-0.6-6.3,0.2-8.1,1.9c-1.7,1.6-1.7,4.7,0.3,6.9c0.9-1.4,1.8-4,3.1-3.9c1.3,0.1,1.1,1.5,2.3,2.8s4.1,0.1,5.4,0.9
		c1.3,0.9,2.3,3.3,2.5,4.8c0.1,0.8,0.8,1.1,1.4,1.1l7,0V27h-8c-0.2,4.2-1.5,10.1-2.9,13c3.6,4.9,13.3,4.7,16.2-0.1
		c-1.9-3.9-2.3-12.8,0.4-16.5C306.6,19.4,306.3,11.9,302.4,8.8z M294.5,14.3c-2,0-3.5-1.6-3.5-3.5s1.6-3.5,3.5-3.5s3.5,1.6,3.5,3.5
		S296.4,14.3,294.5,14.3z"/>
	<path d="M279.5,44c-2.8,6.5-8.3,13-13.7,10.6c-6-2.6-0.7-22.8-12.8-29.5c-19.5-10.8-40.9,12.1-45.8,30.6c-2.2,8.3-4.2,19-4.2,28.8
		c2.9-0.1,6.5-1.1,7.8-6.8c0.9-4,0.5-31.1,18.7-43.3c11.4-7.6,25.2-6.1,25.2,12.3c0,15.8,4.8,20.6,12.7,21.6
		c1.3,0.2-1.4,11.9,3.7,12.8c4.5,0.8,5.7-9.5,7.1-9.1c1.3,0.4-0.5,11,4,11.2c4.1,0.2,4.2-9.8,5.5-9.8c1.6,0,1.8,13.1,7.3,12.5
		c5.6-0.7,3.9-13.3,5.5-13.5c2.3-0.4,1.7,11.6,6.3,11.5c5.6-0.1,3.1-13.2,5-13.5c1.5-0.2,1.4,11.5,6,10.9c4.8-0.6,1.9-12.6,4.2-13.2
		c8.8-2.1,12.6-8.1,13.2-22.5C335.8,31,346,24.1,358.3,33c9.5,6.9,18,23.3,20.8,44.7c0.4,3.3,3.2,6.8,6.9,7
		c0.4-11.3-2.8-26-6.5-34.3c-8-18.2-23.3-33.3-41.8-25.8c-14.8,6-6.4,27.9-14.2,30.3c-5.3,1.6-9.6-2.9-13.5-10.8
		C311.6,60,277.3,58.9,279.5,44z"/>
	<path d="M256.6,74.8c0.9-1.7,4.6-3.1,6.4,1.3c0.7,1.8,1.9,25,1.3,27.2c-0.9,3.5-3.3,5.8-5.8,6.5C255.4,103.3,255.1,77.8,256.6,74.8
		z"/>
	<path d="M265.2,106.7c-1.5,5.1-3.8,7.4-6.8,8.2c0.6,8.3,3.5,19.9,4.8,22.8c3.5-0.8,4.4-2.8,4.8-7.1
		C268.5,126.3,266.6,114.3,265.2,106.7z"/>
	<path d="M210.3,83.2c-2.5,7.7-5.4,9.2-9,9c-1,11,2.1,42,6.3,52.4c4.8-0.9,6.3-12.1,5.7-14.6C212.3,126.1,209.7,94.2,210.3,83.2z"/>
	<path d="M215.4,138c-0.3,6.6-2.8,11.4-6.9,12.2c2.5,9,18.5,45.2,25.1,49.1c1.6-2,1.1-6.6-1.3-10.4C228.7,182.9,217,152.8,215.4,138
		z"/>
	<path d="M241.4,39.1c5.4-2,2.6-7.1-4.6-3.4c-10.3,5.3-19.9,26.3-19.9,46.4c4.1,0.3,8.5-4,8.9-8.3C227.3,56.8,234.6,41.6,241.4,39.1
		z"/>
	<path d="M223.9,82.1c-2.2,5.3-3.8,6.3-7.8,6.3c-0.2,6.8,0.7,24.2,1.6,29.3c3.2-0.3,5.2-2.5,6.2-5.2
		C225.4,108.4,224.6,89.3,223.9,82.1z"/>
	<path d="M225.4,113.3c-0.7,8.4-2,10.2-7.8,10.1c2.2,17.9,17.9,59.6,25.4,67.4c2-0.9,3.1-8.5,1.3-11.9
		C238.8,168.6,226.8,127.1,225.4,113.3z"/>
	<path d="M242.6,44.2c-7.4,7.3-12.1,27.9-11.4,37.6c4.6-0.4,7.1-2.8,7.2-6.8c0.1-7.2,4.6-26.2,9.3-28.1
		C252.7,44.9,249.2,37.7,242.6,44.2z"/>
	<path d="M237,81.8c-1.4,4-2.9,6-7.7,5.8c-0.4,6.2,0.9,25.8,1.8,29.7c3.5,0,5.6-2.6,5.9-6C237.4,106,237.3,91.6,237,81.8z"/>
	<path d="M238,112.3c0.4,6.4-2.7,9.3-6.7,9.9c1.2,13.1,16.6,53.6,21.7,57.9c2.2-3,2.5-9,0.6-13.5C250.7,159.9,238.9,126.2,238,112.3
		z"/>
	<path d="M245.7,61.3c-0.6,6.2-0.3,10.5-2.3,15.2c3,0.4,5.1-1.7,6.7-3.8c1.6-2.2,2.7-8.3,2.2-12.5C251.6,54.9,246.4,53.6,245.7,61.3
		z"/>
	<path d="M250.7,75.1c-0.7,4.9-4.3,7.1-7.4,7.1c-0.8,8.2-0.2,23.6,0.5,29.5c3.3-0.1,6.2-4.1,6.8-7.6
		C251.4,99.7,251.2,82.4,250.7,75.1z"/>
	<path d="M252,109.6c-0.5,5.2-3.8,8.2-7.8,8.2c1.6,11.1,14.9,50.9,19.8,55.9c2.8-2.5,2.3-9.1,0.9-12.4
		C261.6,153.6,252.3,121.4,252,109.6z"/>
	<path d="M332.7,74.8c-0.9-1.7-4.6-3.1-6.4,1.3c-0.7,1.8-1.9,25-1.3,27.2c0.9,3.5,3.3,5.8,5.8,6.5
		C333.8,103.3,334.2,77.8,332.7,74.8z"/>
	<path d="M324.1,106.7c1.5,5.1,3.8,7.4,6.8,8.2c-0.6,8.3-3.5,19.9-4.8,22.8c-3.5-0.8-4.4-2.8-4.8-7.1
		C320.8,126.3,322.6,114.3,324.1,106.7z"/>
	<path d="M378.9,83.2c2.5,7.7,5.4,9.2,9,9c1,11-2.1,42-6.3,52.4c-4.8-0.9-6.3-12.1-5.7-14.6C377,126.1,379.6,94.2,378.9,83.2z"/>
	<path d="M373.8,138c0.3,6.6,2.8,11.4,6.9,12.2c-2.5,9-18.5,45.2-25.1,49.1c-1.6-2-1.1-6.6,1.3-10.4
		C360.6,182.9,372.2,152.8,373.8,138z"/>
	<path d="M347.9,39.1c-5.4-2-2.6-7.1,4.6-3.4c10.3,5.3,19.9,26.3,19.9,46.4c-4.1,0.3-8.5-4-8.9-8.3
		C361.9,56.8,354.7,41.6,347.9,39.1z"/>
	<path d="M365.3,82.1c2.2,5.3,3.8,6.3,7.8,6.3c0.2,6.8-0.7,24.2-1.6,29.3c-3.2-0.3-5.2-2.5-6.2-5.2
		C363.9,108.4,364.7,89.3,365.3,82.1z"/>
	<path d="M363.8,113.3c0.7,8.4,2,10.2,7.8,10.1c-2.2,17.9-17.9,59.6-25.4,67.4c-2-0.9-3.1-8.5-1.3-11.9
		C350.4,168.6,362.4,127.1,363.8,113.3z"/>
	<path d="M346.7,44.2c7.4,7.3,12.1,27.9,11.4,37.6c-4.6-0.4-7.1-2.8-7.2-6.8c-0.1-7.2-4.6-26.2-9.3-28.1
		C336.5,44.9,340.1,37.7,346.7,44.2z"/>
	<path d="M352.2,81.8c1.4,4,2.9,6,7.7,5.8c0.4,6.2-0.9,25.8-1.8,29.7c-3.5,0-5.6-2.6-5.9-6C351.8,106,351.9,91.6,352.2,81.8z"/>
	<path d="M351.2,112.3c-0.4,6.4,2.7,9.3,6.7,9.9c-1.2,13.1-16.6,53.6-21.7,57.9c-2.2-3-2.5-9-0.6-13.5
		C338.5,159.9,350.3,126.2,351.2,112.3z"/>
	<path d="M343.6,61.3c0.6,6.2,0.3,10.5,2.3,15.2c-3,0.4-5.1-1.7-6.7-3.8c-1.6-2.2-2.7-8.3-2.2-12.5
		C337.6,54.9,342.9,53.6,343.6,61.3z"/>
	<path d="M338.5,75.1c0.7,4.9,4.3,7.1,7.4,7.1c0.8,8.2,0.2,23.6-0.5,29.5c-3.3-0.1-6.2-4.1-6.8-7.6C337.8,99.7,338,82.4,338.5,75.1z
		"/>
	<path d="M337.2,109.6c0.5,5.2,3.8,8.2,7.8,8.2c-1.6,11.1-14.9,50.9-19.8,55.9c-2.8-2.5-2.3-9.1-0.9-12.4
		C327.7,153.6,336.9,121.4,337.2,109.6z"/>
	<path d="M291,240c1.9,2.5,4.7,2.3,6.6,0.3c3-3.1-1-14.7-1.7-14.7c-0.3,0-1.3,4.3-1.6,4.3c-0.2,0-0.9-4.3-1.3-4.3
		C292.4,225.6,288.2,236.2,291,240z"/>
	<path d="M287.3,231.9c-2.6,0.6-4.6-1.1-4.4-3.6c0.4-5.2,6.7-8.8,7.1-8.5c0.1,0.1-1.4,3.2-1.1,3.4c0.3,0.2,2.9-2.1,3.1-2.1
		C292.5,221,290.8,231,287.3,231.9z"/>
	<path d="M281.4,225.3c-2,0.5-3.5-1.4-2.9-3c1-2.8,7.9-5.1,7.9-5.1S284.2,224.6,281.4,225.3z"/>
	<path d="M301.1,231.9c2.6,0.6,4.6-1.1,4.4-3.6c-0.4-5.2-6.7-8.8-7.1-8.5c-0.1,0.1,1.4,3.2,1.1,3.4c-0.3,0.2-2.9-2.1-3.1-2.1
		C295.9,221,297.6,231,301.1,231.9z"/>
	<path d="M307,225.3c2,0.5,3.5-1.4,2.9-3c-1-2.8-7.9-5.1-7.9-5.1S304.3,224.6,307,225.3z"/>
</g>
<path id="Decoracion" class="st2" d="M309,705.8c-5.6,1.1-10.7,3.5-14.7,6.8c-4.5-3.7-8.5-6.1-17.3-7.1
	c-18.2-2.1-32.6,5.5-32.6,18.5c0,12.3,9.5,15.5,16.8,15.5c8.3,0,10.9-4.3,10.9-8.2c0-4-3.2-7.2-7.2-7.2s-7.2,3.2-7.2,7.2
	c0,1.1,0.2,2,0.6,3c-10.5-1-11.6-20.4,4.7-23.2c9.4-1.6,21.3-0.2,27.3,4.9c-12.1,8-16,24.4-9,33.2c6.2,7.7,19.6,8,25.7,0
	c8.6-11.4-0.5-27.5-8.5-33.1c4.4-4.2,19.9-8.2,28.7-4.9c14.8,5.6,13.4,21.7,3,22.5c0.3-0.7,0.4-1.5,0.4-2.4c0-4-3.2-7.2-7.2-7.2
	c-4,0-7.2,3.2-7.2,7.2s2.6,7.7,12.3,7.7c10.5,0,15.3-5.7,15.1-15.9C343.3,711.1,327,702.3,309,705.8z M304.8,738
	c0,6.4-3.3,10.9-10.9,10.9c-6.1,0-10-3.8-10-11.7c0-8.7,10.3-17.5,10.3-17.5S304.8,728.1,304.8,738z"/>
<g id="Pancarta">
	<path class="st5" d="M487,680.3c-5-6.8-13.6-13.4-23.8-13.4c-7.7,0-15.8,4.6-15.8,11.8c0,9.3,4.1,13.1,11.1,13.1
		c11.1,0,19.4-6.7,28.4-11.2V680.3z"/>
	<path class="st5" d="M127.1,692.1c9.9,0,15.1-5.2,15.1-12.6c0-6.5-8.9-12.6-15.4-12.6c-11.9,0-20.9,8-25.9,13.6v0
		C112,685.1,121.8,692.1,127.1,692.1z"/>
	<path class="st5" d="M502.8,676.6c-17.4,0-27.5,15.3-44.2,15.3c-1,0-1.8-0.1-2.7-0.2v5.3c-0.3-0.1-0.5-0.2-0.8-0.3
		c-0.4-0.2-0.8-0.3-1.3-0.5c-0.4-0.2-0.9-0.3-1.3-0.5c-0.4-0.2-0.9-0.3-1.3-0.5c-0.3-0.1-0.5-0.2-0.8-0.3c-1.1-0.4-2.3-0.9-3.4-1.4
		c-0.2-0.1-0.5-0.2-0.7-0.3c-0.6-0.3-1.3-0.5-1.9-0.8c-0.2-0.1-0.4-0.2-0.6-0.2c-0.7-0.3-1.4-0.6-2.1-0.9c-0.1,0-0.2-0.1-0.3-0.1
		c-40.1-16.9-89-43.6-146.7-43.6c-58,0-111.1,29.5-152.5,46.2c-0.2,0.1-0.3,0.1-0.5,0.2c-0.7,0.3-1.4,0.6-2.1,0.8
		c-0.3,0.1-0.6,0.2-0.9,0.4c-0.6,0.2-1.3,0.5-1.9,0.7c-0.4,0.1-0.8,0.3-1.1,0.4c-0.3,0.1-0.5,0.2-0.8,0.3v-5.8
		c-3,0.9-4.6,1.3-7.6,1.3c-7.9,0-25-15.4-42.8-15.4c-6.5,0-15.7,5.8-15.7,13.4v39.5c0,9,11.2,21,32.2,21c0.3,0,0.5,0,0.8,0v0
		c0,0,0.1,0,0.1,0c0.9,0,1.8,0,2.7-0.1c0.7,0,1.4-0.1,2.1-0.1c0.1,0,0.3,0,0.4,0c35.2-2.8,75.1-29.8,122.7-45.5h0
		c3.7-1.2,7.5-2.4,11.3-3.4c0.1,0,0.2,0,0.2-0.1c1.1-0.3,2.3-0.6,3.4-0.9c0.2-0.1,0.5-0.1,0.7-0.2c1-0.3,2-0.5,3-0.8
		c0.3-0.1,0.6-0.1,0.9-0.2c0.9-0.2,1.9-0.5,2.9-0.7c0.3-0.1,0.6-0.1,1-0.2c1-0.2,1.9-0.4,2.9-0.6c0.3-0.1,0.6-0.1,0.9-0.2
		c1.1-0.2,2.2-0.4,3.3-0.6c0.2,0,0.3-0.1,0.5-0.1c2.6-0.5,5.2-0.9,7.8-1.3c0.3,0,0.7-0.1,1-0.1c0.9-0.1,1.9-0.3,2.8-0.4
		c0.5-0.1,0.9-0.1,1.4-0.2c0.8-0.1,1.7-0.2,2.5-0.3c0.5,0,1-0.1,1.5-0.1c0.8-0.1,1.6-0.1,2.4-0.2c0.5,0,1-0.1,1.5-0.1
		c0.8-0.1,1.7-0.1,2.5-0.2c0.5,0,1-0.1,1.5-0.1c0.9,0,1.8-0.1,2.7-0.1c0.4,0,0.9,0,1.3,0c1.3,0,2.7-0.1,4-0.1c1.2,0,2.5,0,3.7,0
		c0.4,0,0.8,0,1.2,0c0.9,0,1.7,0.1,2.6,0.1c0.4,0,0.9,0,1.3,0.1c0.8,0,1.7,0.1,2.5,0.2c0.4,0,0.8,0.1,1.2,0.1c1,0.1,2,0.2,2.9,0.3
		c0.2,0,0.5,0,0.7,0.1c1.2,0.1,2.5,0.3,3.7,0.4c0.2,0,0.4,0,0.6,0.1c1,0.1,2.1,0.3,3.1,0.4c0.3,0,0.7,0.1,1,0.1
		c0.9,0.1,1.8,0.3,2.8,0.4c0.3,0.1,0.7,0.1,1,0.2c1,0.2,2,0.3,3,0.5c0.2,0,0.4,0.1,0.6,0.1c2.5,0.5,5,1,7.5,1.6c0.1,0,0.2,0,0.3,0.1
		c1.1,0.3,2.2,0.5,3.4,0.8c0.2,0,0.4,0.1,0.6,0.1c1.1,0.3,2.2,0.6,3.3,0.8c0.1,0,0.2,0.1,0.4,0.1c5,1.3,10,2.8,14.9,4.4
		c36.7,12,70.2,30.7,99.6,39.9v0c0,0,0.1,0,0.1,0c1.2,0.4,2.4,0.7,3.6,1.1c0.9,0.2,1.7,0.5,2.5,0.7c0.3,0.1,0.6,0.2,0.9,0.2
		c8.4,2.2,16.3,3.6,24,3.6c23.5,0,32.9-12.5,32.9-19.8v-40.7C520,682.9,512.2,676.6,502.8,676.6z"/>
	<path class="st6" d="M101.7,680.5c5.1-5.6,13.7-13.6,25.6-13.6c6.5,0,15.1,6.1,15.1,12.6c0,7.4-5,12.6-14.9,12.6
		c-7.9,0-24.7-15.4-42.5-15.4c-6.5,0-15.4,5.8-15.4,13.4v39.5c0,9,11,21,32,21c51.2,0,112.1-56.9,192.6-56.9
		c76.3,0,142.8,56.6,193.3,56.6c23.5,0,33.1-12.5,33.1-19.8v-40.7c0-7-8-13.2-17.4-13.2c-17.4,0-27.6,15.3-44.3,15.3
		c-7.1,0-11.3-3.8-11.3-13.1c0-7.2,8.2-11.8,15.9-11.8c10.2,0,18.8,6.4,24,13.2"/>
	<path class="st6" d="M69.5,694c0,0,10.5,11,29.5,11c43.3,0,114.7-57.5,195.8-57.5c84.3,0,149.8,57.2,196.7,57.2
		c20.5,0,28.8-11.3,28.8-11.3"/>
</g>
<g id="Libertad">
	<path d="M275.2,214.9c0,0,1.4-17.8-15.2-16.8c-11.5,0.7-23.6,12.4-53,13.2c-14.9,0.4-18.7-6.6-18.7-6.6s-1.2,23.7,19.4,25
		c21,1.4,39-5.9,45.1-9.1C267,213.1,275.2,214.9,275.2,214.9z"/>
	<g>
		<polygon class="st5" points="240.8,208.3 248.8,205.9 248.8,208.3 246.7,208.6 246.7,218.1 243.2,219.2 243.2,209.6 240.8,210.7 
					"/>
		<polygon class="st5" points="224.4,212.5 230.8,211.2 230.8,213.3 227.6,213.6 227.6,216.2 230.8,215.5 230.8,217.6 227.6,217.8 
			227.6,221 231.1,220.2 231.1,222.3 224.2,223.7 224.2,212.5 		"/>
		<path class="st5" d="M250.4,205.4l-2.4,12.7l2.6-1.1l0.3-2.1l2.4-1.1l0.3,1.6l3.4-1.1l-2.6-10.6L250.4,205.4z M251.4,212.5
			l0.5-6.1l1.1,5.6L251.4,212.5z"/>
		<rect x="209.1" y="213.9" class="st5" width="3.4" height="10.8"/>
		<path class="st5" d="M260.4,202.5l-3.4,0.8v11.1l3.4-1.1c4-1.3,5.6-3.2,5.6-6.9C266,203.3,263.9,201.7,260.4,202.5z M260,211.8
			v-7.9c2,0,2.1,0,2.1,3.4C262.1,210.2,262,211,260,211.8z"/>
		<path class="st5" d="M239.3,215.5c0.8-0.3,1.6-1.6,1.6-2.6c0-2.1-1.9-3.8-4.5-3l-3.5,1.2h0.2v11.3l3-1.1v-4.5l2.2,3.7l3.7-1.1
			L239.3,215.5z M236,215.5v-4c1-0.5,1.3,0.5,1.3,1.6C237.3,214.4,237,214.9,236,215.5z"/>
		<path class="st5" d="M220.5,218.6c1.3,0,2.4-1.3,2.4-2.6c0-2.1-1.7-2.6-4.3-2.4l-3.5,0.3V225l4.3-0.3c2.6-0.3,3.9-1.6,3.9-3.7
			S221.8,218.6,220.5,218.6z M218,223.7v-4c1,0,1.6,0.8,1.6,2.1S219,223.9,218,223.7z M218,218.6v-3.4c1,0,1.6,0.5,1.6,1.6
			C219.6,217.8,219,218.4,218,218.6z"/>
		<path class="st5" d="M201.7,213.3l3.4,0.3v9.3h2.6v2.1c-2.1,0-4.8-0.8-6.1-1.3V213.3z"/>
	</g>
</g>
<g id="Y">
	<path d="M305.8,214.4c-4.1-1.4-15.4-1.7-21.7,0c-3.3-2.6-6.4-18.6,1.4-21.3c6.4-2.2,11-2.3,18.8,0.2
		C311,195.4,309.6,208.4,305.8,214.4z"/>
	<polygon class="st5" points="297.3,196.6 299.5,196.6 296.8,204.1 296.8,207.9 293.2,207.9 293.2,204.1 290.5,196.6 294,196.6 
		295.7,201.9 	"/>
</g>
<g id="Orden">
	<path d="M313.4,214.9c0,0-1.4-17.8,15.2-16.8c11.5,0.7,23.6,12.4,53,13.2c14.9,0.4,18.7-6.6,18.7-6.6s1.2,23.7-19.4,25
		c-21,1.4-39-5.9-45.1-9.1C321.6,213.1,313.4,214.9,313.4,214.9z"/>
	<g>
		<polygon class="st5" points="362,223.2 355.1,221.6 355.1,210.4 361.8,212 361.8,214.1 358.6,213.1 358.6,216.3 361.2,216.5 
			361.2,218.7 358.6,217.9 358.6,220.5 362,221.3 		"/>
		<polygon class="st5" points="373.2,224.8 369.2,224.5 366,215.7 366.3,224.3 364.2,224 364.2,212.8 368.7,213.6 371.4,222.1 
			371.1,213.9 373.2,213.9 		"/>
		<path class="st5" d="M348.6,208l-3.6-1.3v12l3.3,1.1c2.7,0.5,5.6-0.5,5.9-4.3C354.2,212,352.6,209.3,348.6,208z M348,217.9v-8.3
			c1,0.5,2.4,1.3,2.4,5.1C350.4,217.6,349,218.1,348,217.9z"/>
		<path class="st5" d="M341,211.7c1.3-0.3,2.1-1.3,2.1-2.7c0-2.1-1.2-3.5-4.7-4.5l-3.4-1.1v11.7l3,1.1v-4.5l1.7,5.1l3.8,1.3
			L341,211.7z M339.6,209.1c0,1.3-0.6,1.9-1.6,1.6v-4.5C339,206.7,339.9,207.7,339.6,209.1z"/>
		<path class="st5" d="M328.1,201.3c-2.7-0.3-4.8,1.9-4.8,5.6c0,2.9,1.3,5.3,4.5,6.1c2.7,0.8,5.1-1.1,5.1-4.5
			C332.9,205.1,331.9,202.1,328.1,201.3z M328.1,212c-1.3-0.5-1.3-2.4-1.3-4.5c0-2.9,0-4.8,1.3-4.5c1.3,0.3,1.3,2.7,1.3,5.1
			S329.5,212.3,328.1,212z"/>
	</g>
</g>
<g id="Inter_Aulas_Academiae_Quaere_Verum">
	<path d="M206.9,696.1c0,2.2-2.4,2.7-5.1,2.2l0.8,3.8c4,1.3,8.9-1.3,8.9-6.2c0-6.2-6.5-7.3-6.5-10.8c0-2.7,2.4-3.2,5.1-2.4l-0.8-3.8
		c-4.8-0.8-8.6,2.2-8.6,6.2C200.8,691.2,206.9,692,206.9,696.1z"/>
	<path d="M234.1,687.7l3.8-1.1l0.8,4l3.5-1.1l-3.5-21.3l-5.9,1.6l-3.8,23.1l4.6-1.3L234.1,687.7z M235.2,677.5l0.3-4.6l0.8-0.3
		l0.3,4.6l0.8,6.2l-2.7,0.8L235.2,677.5z"/>
	<path d="M219.9,688.3c1.6,0,2.7-1.1,2.7-2.7c0-1.6-1.1-2.7-2.7-2.7s-2.7,1.1-2.7,2.7C217.2,687.2,218.2,688.3,219.9,688.3z"/>
	<path d="M120.1,732.4c-1.3,0.8-3.8,1.3-4.8,1.6v-7.3l4-0.8v-3.5l-4,1.3v-6.2l4.8-0.8v-3.5c-2.7,0.8-5.6,1.3-8.9,2.2v22.1
		c2.4-0.3,6.5-1.3,8.9-2.2V732.4z"/>
	<path d="M191.9,703.1l4.6-1.6l0.8,4l3.5-1.3l-4.8-20.7l-5.6,2.2l-2.7,24.2l4-1.6L191.9,703.1z M193,693.1V688l0.8-0.3l0.8,5.1
		l1.3,5.1l-3.5,1.3L193,693.1z"/>
	<polygon points="93.4,723.8 94.8,732.1 94.2,732.1 92.9,725.9 89.9,717.6 86.4,717.3 86.4,737.5 89.9,738.1 89.9,731.6 88.6,723.3 
		89.4,723.3 90.7,729.4 93.4,738.9 96.9,739.1 96.9,717.6 93.4,717.6 	"/>
	<path d="M125.7,725.1l1.3-0.3l0.8,2.7l3.2,4.8l4-1.3l-5.9-7.5c2.2-1.3,3.5-3.8,3.5-6.5c0-3.5-2.7-5.9-7.5-4.6l-2.7,0.8v22.1
		l3.5-1.1v-9.1H125.7z M125.7,715.2c2.2-0.8,3.5,0.8,3.5,2.7c0,1.3-0.8,3.5-3.5,4V715.2z"/>
	<path d="M253.8,687.2V684c-3.5,1.3-6.5-0.8-6.5-7c0-5.6,1.6-8.3,5.9-8.3v-3.5c-5.6-0.8-9.7,4-9.7,11.8
		C243.5,687.5,248.9,689.4,253.8,687.2z"/>
	<path d="M141,720.8c1.6,0,2.7-1.1,2.7-2.7c0-1.6-1.1-2.7-2.7-2.7s-2.7,1.1-2.7,2.7C138.1,719.8,139.2,720.8,141,720.8z"/>
	<polygon points="186,706.6 181.9,708.7 181.9,688.8 178.4,690.2 178.4,713.6 186,710.3 	"/>
	<path d="M167.1,718.4c3.5,0,7.5-3.5,7.5-10.5v-16.4l-4,1.6v16.7c0,2.7-1.3,4-2.7,4c-0.8,0-1.3-0.8-1.3-2.2v-16.1l-3.5,1.3v16.7
		C163.1,716.3,164.4,718.4,167.1,718.4z"/>
	<path d="M153.4,719l4-1.6l0.8,4.8l3.5-1.3l-3.5-21.5l-6.2,2.7l-3.5,23.9l4-1.6L153.4,719z M154.8,704.2l0.8-0.3l0.8,5.1l0.8,4.8
		l-3.5,1.3L154.8,704.2z"/>
	<path d="M101.8,739.1l4-0.3v-18.3c0.8,0,3.8-0.3,3.8-0.3v-3.8c-3.2,0.8-8.9,1.3-11.6,1.3v3.5l3.5-0.3v18H101.8z"/>
	<path d="M434.3,714.9c1.6,0,2.7-1.1,2.7-2.7c0-1.6-1.1-2.7-2.7-2.7c-1.6,0-2.7,1.1-2.7,2.7C431.6,713.8,432.7,714.9,434.3,714.9z"
		/>
	<polygon points="426.5,717.1 420.8,715.2 420.8,708.2 425.7,710.1 425.7,706.6 420.8,704.7 420.8,699 426.5,701.5 426.5,698 
		417.3,693.7 417.3,717.3 426.5,720.8 	"/>
	<polygon points="450.7,730.8 454.2,709.8 450.7,708.2 448.5,720.8 448.3,726.8 447.2,726.2 447.2,720.3 445.3,706.3 441.5,704.4 
		444.5,728.4 	"/>
	<path d="M407.6,704.4h1.3l0.3,2.2l2.7,8.3l4.8,2.2l-5.1-13.5c2.2-1.1,2.7-4,2.7-5.6c0-3.5-1.3-6.2-7-8.3l-3.5-1.3V712l3.5,1.3v-8.9
		H407.6z M407.6,693.4c2.2,0.8,3.5,1.6,3.5,4.6c0,2.7-2.2,3.8-3.5,3.2V693.4z"/>
	<polygon points="464.4,731.6 459,730 459,723.5 463.1,724.9 463.1,721.4 459,720.3 459,714.6 464.4,716.5 464.4,713 455.5,710.1 
		455.5,732.1 464.4,735.4 	"/>
	<path d="M485.4,740.2c3.5,0,5.9-2.7,5.9-7.5v-14.8h-3.8v15.6c0,2.2-1.3,2.7-2.2,2.7c-1.3,0-2.2-1.1-2.2-3.5v-15.3l-4-0.8v15.9
		C478.9,738.1,481.9,740.2,485.4,740.2z"/>
	<polygon points="497.5,731.1 496.4,722.7 497,722.7 499.9,734.6 502.6,734 505,721.4 505.8,721.1 504.8,729.2 504.8,735.9 
		508.3,734.3 508.3,715.5 503.9,716.3 501.8,725.1 501.5,730 500.7,730 500.5,725.7 497.8,717.3 494,717.6 494,738.9 497.5,738.3 	
		"/>
	<path d="M386.9,704.4l1.3-4.8l4,1.6v5.1l9.7,4v-4l-5.6-2.2V698l4,1.6v-3.5l-4-1.6v-5.6l5.6,2.4v-3.8l-12.1-4.8l-6.2,20.4
		L386.9,704.4z M390.7,691l1.1-4.6l0.8,0.3v11l-3.2-1.3L390.7,691z"/>
	<g>
		<path d="M470.1,729.4h1.3l0.3,1.6l2.4,6.5l4,1.1l-4-10.5c1.3-0.8,2.7-3.2,2.7-5.6c0-4-2.2-7.3-6.2-8.3l-4-1.1v22.6l3.5,0.8V729.4z
			 M470.1,718.4c2.2,0,3.5,1.6,3.5,3.8c0,2.7-1.3,4-3.5,4V718.4z"/>
	</g>
	<path d="M79.7,734.6c1.1,0.8,2.2,1.1,4,1.6v-19.6l-4-1.1V734.6z"/>
	<polygon points="293.3,678.9 288.5,679.1 288.5,672.1 292.8,672.1 292.8,668.9 288.5,669.2 288.5,663.3 293.3,663 293.3,659.5 
		285,659.8 285,682.6 293.3,682.4 	"/>
	<polygon points="300.3,675.1 299.5,665.4 300.3,665.4 301.6,672.1 303,677.8 305.9,677.8 307.3,672.1 308.6,666 309.2,666 
		308.6,675.6 308.6,682.9 312.1,683.4 312.1,660.8 307.8,660.6 305.1,668.9 304.3,674.3 304.1,674.3 303.8,668.9 300.8,659.8 
		296.8,659.5 296.8,682.4 300.3,682.4 	"/>
	<path d="M259.7,681l3.8-1.1l0.8,4.8l4-0.8l-4-21.5l-6.2,1.3l-2.7,22.9l3.8-1.1L259.7,681z M260.8,666h0.8l1.3,10.5l-2.7,0.8
		L260.8,666z"/>
	<path d="M282.3,671.6c0-8.3-3.8-11-9.4-10.5l-2.4,0.3v22.1l2.7-0.3C278,682.6,282.3,679.9,282.3,671.6z M273.9,664.6
		c2.7-0.8,4.8,2.2,4.8,7.5c0,4-2.2,7.5-4.8,7.5V664.6z"/>
	<polygon points="318.3,661.9 314.8,661.1 314.8,683.7 318.3,684 	"/>
	<path d="M377.8,701.5c3.2,1.1,6.2-1.3,6.2-4.8v-16.4l-3.5-1.1v16.7c0,1.3-0.8,2.4-2.2,2.2c-1.6-0.3-2.7-2.2-2.7-4.8v-15.6l-3.5-1.3
		v16.4C372.4,698,374.3,700.4,377.8,701.5z"/>
	<path d="M363.2,695.8h0.8l6.2,2.2v-4l-2.7-0.8l-2.2,0.8c2.7-1.3,3.5-4,3.5-8.3c0-8.3-2.2-13.2-7-13.2c-4,0-6.2,4.8-6.2,11
		C355.7,691,357.9,695.8,363.2,695.8z M362.2,676.2c2.4,0,3.2,3.8,3.2,8.1c0,4.8-0.8,8.3-2.7,8.3c-2.7,0-3.5-4-3.5-8.3
		C359.2,679.1,359.8,676.2,362.2,676.2z"/>
	<path d="M346,681.8c1.6,0,2.7-1.1,2.7-2.7c0-1.6-1.1-2.7-2.7-2.7c-1.6,0-2.7,1.1-2.7,2.7C343.3,681,344.1,681.8,346,681.8z"/>
	<path d="M324.8,680.5l3.8,0.8v4.6l8.9,2.2v-3.5l-5.6-1.1v-6.7l4.8,1.1v-3.5l-4.8-0.8v-5.6l5.6,1.3V666c-2.7-0.8-8.3-2.2-11-2.4
		l-7,20.7l3.8,0.8L324.8,680.5z M327.7,671.3l1.1-4h0.3l-0.3,4v6.5l-3.2-0.3L327.7,671.3z"/>
</g>
<g>
</g>
<g>
</g>
<g>
</g>
<g>
</g>
<g>
</g>
<g>
</g>
<g>
</g>
<g>
</g>
<g>
</g>
<g>
</g>
<g>
</g>
<g>
</g>
<g>
</g>
<g>
</g>
<g>
</g>
</svg>
