<svg xmlns="http://www.w3.org/2000/svg" viewBox="0 0 246.87 27.39"><defs><style>.cls-1{fill:#55565a;}.cls-2{fill:#ce6854;}.cls-3{fill:#919b9b;}</style></defs><g id="Capa_2" data-name="Capa 2"><g id="Capa_1-2" data-name="Capa 1"><polygon class="cls-1" points="16.29 7.06 16.29 7.06 16.29 7.06 16.29 7.06"/><polygon class="cls-2" points="16.29 7.06 16.29 7.06 16.29 7.06 16.29 7.06"/><path class="cls-3" d="M22.14,14.25c.38.36.79.73,1.22,1.11,6.18,5.51,16.8,8,16.8,8h0V0Z"/><path class="cls-1" d="M29.36,23.35H0L16.29,7.06V9.87A13.45,13.45,0,0,0,18.68,17c2.33,3.52,6.17,6.37,10.68,6.37"/><path class="cls-2" d="M40.16,23.35s-10.62-2.48-16.8-8c-.43-.38-.84-.75-1.22-1.11-5-4.73-5.85-7.18-5.85-7.19h0V9.87A13.45,13.45,0,0,0,18.68,17c2.33,3.52,6.17,6.37,10.68,6.37Z"/><path class="cls-1" d="M78.84,8.76a6.41,6.41,0,0,0-4.78,1.94,6.73,6.73,0,0,0-1.88,4.84,6.29,6.29,0,0,0,2,4.86,7.62,7.62,0,0,0,5.33,1.88A9.62,9.62,0,0,0,84.48,21l-.39-2.43a10,10,0,0,1-4.53,1.21c-2.51,0-4.17-1.19-4.64-3.29H85A6.23,6.23,0,0,0,78.84,8.76ZM75,14.38a3.66,3.66,0,0,1,3.93-3.16,3.41,3.41,0,0,1,3.67,3.16Z"/><polygon class="cls-1" points="103.74 22 106.39 22 106.39 9.04 103.74 10.24 103.74 22"/><path class="cls-1" d="M103.88,3.51a1.85,1.85,0,0,0,0,2.38,1.68,1.68,0,0,0,2.37-2.38A1.72,1.72,0,0,0,103.88,3.51Z"/><path class="cls-1" d="M116.17,19.79c-2.79,0-4.69-1.77-4.69-4.34s1.87-4.2,4.67-4.2a8.32,8.32,0,0,1,3.59.78L120,9.65a8.93,8.93,0,0,0-3.87-.89,7.65,7.65,0,0,0-5.34,1.88,6.25,6.25,0,0,0-2,4.81,6.51,6.51,0,0,0,2,4.95,7.62,7.62,0,0,0,5.33,1.88,11,11,0,0,0,4-.86L119.79,19A8.63,8.63,0,0,1,116.17,19.79Z"/><path class="cls-1" d="M127.89,8.76a6.65,6.65,0,0,0-4.89,2,6.54,6.54,0,0,0-2,4.81,6.49,6.49,0,0,0,2,4.78,7.14,7.14,0,0,0,9.81,0,6.43,6.43,0,0,0,2-4.8,6.45,6.45,0,0,0-2-4.81A6.72,6.72,0,0,0,127.89,8.76Zm3,9.79a4.07,4.07,0,0,1-3,1.21,4.1,4.1,0,0,1-4.2-4.22,4.12,4.12,0,0,1,4.2-4.26,4,4,0,0,1,3,1.22,4.15,4.15,0,0,1,1.22,3A4.14,4.14,0,0,1,130.9,18.55Z"/><path class="cls-1" d="M153.86,8.76a5.57,5.57,0,0,0-4.42,1.84,2.93,2.93,0,0,0-.19.26V9l-2.65,1.21V27.39l2.65-.06v-7.1a5.53,5.53,0,0,0,4.61,2.05,6.32,6.32,0,0,0,4.67-1.85,6.57,6.57,0,0,0,1.86-4.84,6.82,6.82,0,0,0-1.88-4.89A6.18,6.18,0,0,0,153.86,8.76Zm2.68,9.9a4,4,0,0,1-3,1.22,4.09,4.09,0,0,1-3.07-1.25,4.24,4.24,0,0,1-1.21-3,4.44,4.44,0,0,1,1.21-3.12,4,4,0,0,1,3-1.3,3.85,3.85,0,0,1,3,1.3,4.49,4.49,0,0,1,1.16,3.12A4.3,4.3,0,0,1,156.54,18.66Z"/><path class="cls-1" d="M143.22,8.76a3.55,3.55,0,0,0-3.37,2.05V9l-2.68,1.22V22h2.68V15c0-2.93,1.85-3.71,3.29-3.71a4.7,4.7,0,0,1,1.58.31L145,9.1,144.8,9A5.74,5.74,0,0,0,143.22,8.76Z"/><path class="cls-1" d="M72.07,9a5.66,5.66,0,0,0-1.57-.25,3.54,3.54,0,0,0-3.37,2.05h0V9l-2.68,1.22V22h2.68V15c0-2.93,1.85-3.71,3.28-3.71a4.66,4.66,0,0,1,1.58.31l.28-2.46Z"/><path class="cls-1" d="M97.8,10.85l-.19-.25a5.57,5.57,0,0,0-4.43-1.84,6.32,6.32,0,0,0-4.64,1.88,6.53,6.53,0,0,0-1.85,4.81,6.82,6.82,0,0,0,1.85,4.92,6.23,6.23,0,0,0,4.64,1.91,5.54,5.54,0,0,0,4.62-2.05V22h2.68V3L97.8,4.24Zm-1.24,7.73a4.08,4.08,0,0,1-3.07,1.3,3.84,3.84,0,0,1-3-1.28,4.52,4.52,0,0,1-1.16-3.15,4.24,4.24,0,0,1,1.16-3,3.93,3.93,0,0,1,3-1.24,4.08,4.08,0,0,1,3,1.24,4.25,4.25,0,0,1,1.21,3A4.45,4.45,0,0,1,96.56,18.58Z"/><path class="cls-1" d="M61.77,7.25,62,4.56A14.6,14.6,0,0,0,56.35,3.4c-4.94,0-8.6,2.45-9.91,6.25,4-3.72,9.7-3.54,9.7-3.54A13.9,13.9,0,0,1,61.77,7.25Z"/><path class="cls-1" d="M61.88,18.38a11.32,11.32,0,0,1-5.17,1.22,8.32,8.32,0,0,1-5.61-1.88,6.14,6.14,0,0,1-2.16-4.89,7.41,7.41,0,0,1,.21-1.67,11.35,11.35,0,0,0-3.25,2,8.71,8.71,0,0,0,2.88,6.53,10.94,10.94,0,0,0,7.6,2.6A16.47,16.47,0,0,0,61,21.59c.36-.14.81-.31,1.3-.53Z"/><path class="cls-1" d="M212.74,3.51a1.85,1.85,0,0,0,0,2.38,1.68,1.68,0,0,0,2.38-2.38A1.73,1.73,0,0,0,212.74,3.51Z"/><polygon class="cls-1" points="212.61 22 215.26 22 215.26 8.31 212.61 9.51 212.61 22"/><path class="cls-1" d="M224.18,19.85a1.88,1.88,0,0,1-2.1-2.05V11.31h3.82V9h-3.84V5.22l-2.63,1.19V9h-2.32v2.27h2.29v6.8c0,2.62,1.66,4.17,4.43,4.17a7.36,7.36,0,0,0,2.81-.44l-.33-2.3A7.67,7.67,0,0,1,224.18,19.85Z"/><polygon class="cls-1" points="244.22 4.24 244.22 22 246.87 22 246.87 3.02 244.22 4.24"/><path class="cls-1" d="M238.28,10.89a4.67,4.67,0,0,0-.34-.45,5.59,5.59,0,0,0-4.28-1.68A6.32,6.32,0,0,0,229,10.64a6.53,6.53,0,0,0-1.85,4.81A6.82,6.82,0,0,0,229,20.37a6.23,6.23,0,0,0,4.64,1.91,5.54,5.54,0,0,0,4.62-2.05V22H241V9h-2.68ZM237,18.58a4.08,4.08,0,0,1-3.07,1.3,3.84,3.84,0,0,1-3-1.28,4.52,4.52,0,0,1-1.16-3.15,4.24,4.24,0,0,1,1.16-3,3.92,3.92,0,0,1,3-1.24,4.09,4.09,0,0,1,3,1.24,4.25,4.25,0,0,1,1.21,3A4.45,4.45,0,0,1,237,18.58Z"/><path class="cls-1" d="M190.91,10.85l-.09-.14a5.56,5.56,0,0,0-4.52-2,6.34,6.34,0,0,0-4.65,1.88,6.53,6.53,0,0,0-1.85,4.81,6.82,6.82,0,0,0,1.85,4.92,6.25,6.25,0,0,0,4.65,1.91,5.53,5.53,0,0,0,4.61-2.05V22h2.68V9h-2.68Zm-1.24,7.73a4.06,4.06,0,0,1-3.07,1.3,3.8,3.8,0,0,1-3-1.28,4.48,4.48,0,0,1-1.17-3.15,4.2,4.2,0,0,1,1.17-3,3.89,3.89,0,0,1,3-1.24,4.06,4.06,0,0,1,3,1.24,4.25,4.25,0,0,1,1.21,3A4.45,4.45,0,0,1,189.67,18.58Z"/><path class="cls-1" d="M204.12,8.76a5.62,5.62,0,0,0-4.32,1.72l-.3.4V9l-2.65,1.23V27.33h2.65v-7.1a5.54,5.54,0,0,0,4.62,2.05,6.33,6.33,0,0,0,4.67-1.85,6.6,6.6,0,0,0,1.85-4.84,6.82,6.82,0,0,0-1.88-4.89A6.15,6.15,0,0,0,204.12,8.76Zm2.68,9.9a4,4,0,0,1-3,1.22,4.07,4.07,0,0,1-3.06-1.25,4.2,4.2,0,0,1-1.22-3,4.41,4.41,0,0,1,1.22-3.12,4,4,0,0,1,3-1.3,3.87,3.87,0,0,1,3,1.3A4.53,4.53,0,0,1,208,15.59,4.34,4.34,0,0,1,206.8,18.66Z"/><path class="cls-1" d="M178.39,7.25l.28-2.69A14.64,14.64,0,0,0,173,3.4c-4.94,0-8.61,2.45-9.92,6.25,4-3.72,9.71-3.54,9.71-3.54A13.85,13.85,0,0,1,178.39,7.25Z"/><path class="cls-1" d="M178.5,18.38a11.25,11.25,0,0,1-5.16,1.22,8.29,8.29,0,0,1-5.61-1.88,6.14,6.14,0,0,1-2.16-4.89,7.42,7.42,0,0,1,.2-1.67,11.29,11.29,0,0,0-3.24,2,8.68,8.68,0,0,0,2.88,6.53,10.93,10.93,0,0,0,7.6,2.6,16.6,16.6,0,0,0,4.61-.66c.36-.14.8-.31,1.3-.53Z"/></g></g></svg>